<?xml version="1.0" encoding="utf-8"?>
<!-- Generator: Adobe Illustrator 16.0.0, SVG Export Plug-In . SVG Version: 6.00 Build 0)  -->
<!DOCTYPE svg PUBLIC "-//W3C//DTD SVG 1.1//EN" "http://www.w3.org/Graphics/SVG/1.1/DTD/svg11.dtd">
<svg version="1.1" id="Layer_1" xmlns="http://www.w3.org/2000/svg" xmlns:xlink="http://www.w3.org/1999/xlink" x="0px" y="0px"
	 width="1290px" height="156px" viewBox="0 0 1290 156" enable-background="new 0 0 1290 156" xml:space="preserve">
<g>
	<defs>
		<rect id="SVGID_1_" x="-124.813" y="-149.188" width="1538" height="448"/>
	</defs>
	<clipPath id="SVGID_2_">
		<use xlink:href="#SVGID_1_"  overflow="visible"/>
	</clipPath>
	<g clip-path="url(#SVGID_2_)">
		<defs>
			<rect id="SVGID_3_" x="-124.813" y="-149.188" width="1538" height="448"/>
		</defs>
		<clipPath id="SVGID_4_">
			<use xlink:href="#SVGID_3_"  overflow="visible"/>
		</clipPath>
		<g opacity="0.54" clip-path="url(#SVGID_4_)">
			<g>
				<defs>
					<rect id="SVGID_5_" x="231.188" y="-21.188" width="1054" height="192"/>
				</defs>
				<clipPath id="SVGID_6_">
					<use xlink:href="#SVGID_5_"  overflow="visible"/>
				</clipPath>
				<g clip-path="url(#SVGID_6_)">
					<defs>
						<rect id="SVGID_7_" x="231.188" y="-21.188" width="1054" height="192"/>
					</defs>
					<clipPath id="SVGID_8_">
						<use xlink:href="#SVGID_7_"  overflow="visible"/>
					</clipPath>
					<path clip-path="url(#SVGID_8_)" d="M679.404,31.16h28.033c28.545,0,46.466,19.073,46.466,45.826
						c0,26.882-17.921,45.826-46.466,45.826h-28.033V31.16z M707.438,111.548c20.992,0,34.434-12.544,34.434-34.562
						c0-21.89-13.441-34.562-34.434-34.562h-16.257v69.123H707.438z"/>
					<path clip-path="url(#SVGID_8_)" d="M760.299,91.451c0-17.793,12.289-33.409,30.722-33.409
						c18.688,0,30.722,13.184,30.722,33.409c0,0.896-0.129,2.176-0.129,2.176h-49.537c0.64,13.313,10.24,20.48,19.969,20.48
						c6.912,0,13.823-2.815,17.152-10.752l10.496,4.353c-3.712,8.96-12.928,17.153-27.393,17.153
						C773.1,124.861,760.299,110.396,760.299,91.451 M790.765,68.794c-8.704,0-15.617,5.888-17.921,15.104h36.354
						C808.813,78.395,804.204,68.794,790.765,68.794"/>
					<polygon clip-path="url(#SVGID_8_)" points="822.635,60.09 835.435,60.09 853.867,108.731 854.123,108.731 872.813,60.09 
						885.357,60.09 859.756,122.813 847.979,122.813 					"/>
					<path clip-path="url(#SVGID_8_)" d="M886.248,91.451c0-17.793,12.289-33.409,30.723-33.409
						c18.688,0,30.721,13.184,30.721,33.409c0,0.896-0.128,2.176-0.128,2.176h-49.538c0.641,13.313,10.24,20.48,19.969,20.48
						c6.912,0,13.824-2.815,17.152-10.752l10.497,4.353c-3.712,8.96-12.929,17.153-27.394,17.153
						C899.049,124.861,886.248,110.396,886.248,91.451 M916.715,68.794c-8.705,0-15.617,5.888-17.922,15.104h36.354
						C934.764,78.395,930.154,68.794,916.715,68.794"/>
					<rect x="957.16" y="31.161" clip-path="url(#SVGID_8_)" width="11.776" height="91.652"/>
					<path clip-path="url(#SVGID_8_)" d="M1042.922,91.451c0,19.073-13.439,33.409-32.257,33.409s-32.258-14.336-32.258-33.409
						c0-19.073,13.44-33.41,32.258-33.41S1042.922,72.378,1042.922,91.451 M1031.146,91.451c0-14.337-9.984-22.657-20.481-22.657
						s-20.481,8.32-20.481,22.657c0,14.336,9.984,22.657,20.481,22.657S1031.146,105.787,1031.146,91.451"/>
					<path clip-path="url(#SVGID_8_)" d="M1063.655,114.108h-0.512l0.512,8.704v27.649h-11.776V60.089h11.265v8.705h0.512
						c3.585-5.76,11.393-10.753,21.378-10.753c15.872,0,29.824,14.209,29.824,33.41s-13.952,33.409-29.824,33.409
						C1075.048,124.86,1067.24,119.868,1063.655,114.108 M1103.082,91.451c0-14.081-9.473-22.657-19.97-22.657
						s-19.969,8.32-19.969,22.657c0,14.336,9.472,22.657,19.969,22.657S1103.082,105.532,1103.082,91.451"/>
					<path clip-path="url(#SVGID_8_)" d="M1121.382,91.451c0-17.793,12.288-33.409,30.722-33.409
						c18.689,0,30.721,13.184,30.721,33.409c0,0.896-0.127,2.176-0.127,2.176h-49.539c0.641,13.313,10.24,20.48,19.969,20.48
						c6.912,0,13.824-2.815,17.153-10.752l10.497,4.353c-3.713,8.96-12.93,17.153-27.395,17.153
						C1134.183,124.861,1121.382,110.396,1121.382,91.451 M1151.848,68.794c-8.705,0-15.617,5.888-17.921,15.104h36.354
						C1169.896,78.395,1165.287,68.794,1151.848,68.794"/>
					<path clip-path="url(#SVGID_8_)" d="M1192.293,122.813V60.089h11.265v10.241h0.513c2.56-7.169,11.648-11.777,18.176-11.777
						c3.841,0,6.4,0.512,8.833,1.536l-4.479,11.009c-1.664-0.64-3.713-0.896-6.273-0.896c-8.064,0-16.256,6.784-16.256,18.304
						v34.306H1192.293z"/>
					<path clip-path="url(#SVGID_8_)" d="M1232.74,106.939l10.496-4.352c3.328,7.936,9.473,11.776,17.025,11.776
						c7.295,0,12.545-3.585,12.545-8.833c0-3.199-1.92-6.655-8.577-8.319l-12.673-3.073c-5.76-1.408-16.769-6.4-16.769-17.408
						c0-11.393,11.776-18.689,24.833-18.689c10.881,0,20.354,4.992,24.193,14.593l-10.24,4.224
						c-2.432-5.888-8.192-8.321-14.337-8.321c-6.656,0-12.417,2.944-12.417,8.065c0,3.968,3.328,6.145,8.32,7.296l12.416,2.944
						c12.418,2.944,17.281,10.625,17.281,18.305c0,11.137-9.984,19.713-24.705,19.713
						C1245.029,124.86,1236.452,115.899,1232.74,106.939"/>
					<g clip-path="url(#SVGID_8_)">
						<defs>
							<rect id="SVGID_9_" x="231.188" y="19.813" width="416" height="136"/>
						</defs>
						<clipPath id="SVGID_10_">
							<use xlink:href="#SVGID_9_"  overflow="visible"/>
						</clipPath>
						<path clip-path="url(#SVGID_10_)" d="M231.91,72.378c0-28.929,24.321-52.482,53.251-52.482
							c16.001,0,27.394,6.272,35.97,14.464l-10.113,10.113c-6.144-5.761-14.464-10.241-25.857-10.241
							c-21.121,0-37.634,17.025-37.634,38.146s16.513,38.146,37.634,38.146c13.696,0,21.505-5.504,26.497-10.496
							c4.097-4.097,6.784-9.984,7.809-18.049h-34.306V67.642h48.258c0.512,2.56,0.768,5.632,0.768,8.96
							c0,10.752-2.944,24.065-12.417,33.537c-9.215,9.601-20.993,14.721-36.609,14.721C256.231,124.86,231.91,101.308,231.91,72.378
							"/>
						<path clip-path="url(#SVGID_10_)" d="M373.188,57.274c-18.689,0-33.922,14.208-33.922,33.792
							c0,19.457,15.233,33.795,33.922,33.795c18.688,0,33.921-14.338,33.921-33.795C407.109,71.482,391.876,57.274,373.188,57.274
							 M373.188,111.548c-10.241,0-19.073-8.448-19.073-20.481c0-12.16,8.832-20.48,19.073-20.48c10.24,0,19.072,8.32,19.072,20.48
							C392.26,103.1,383.428,111.548,373.188,111.548"/>
						<path clip-path="url(#SVGID_10_)" d="M447.188,57.274c-18.689,0-33.922,14.208-33.922,33.792
							c0,19.457,15.233,33.795,33.922,33.795c18.688,0,33.922-14.338,33.922-33.795C481.109,71.482,465.875,57.274,447.188,57.274
							 M447.188,111.548c-10.24,0-19.073-8.448-19.073-20.481c0-12.16,8.833-20.48,19.073-20.48s19.072,8.32,19.072,20.48
							C466.26,103.1,457.428,111.548,447.188,111.548"/>
						<path clip-path="url(#SVGID_10_)" d="M538.017,59.321v5.505h-0.511c-3.328-3.968-9.729-7.552-17.793-7.552
							c-16.896,0-32.386,14.848-32.386,33.921c0,18.944,15.489,33.666,32.386,33.666c8.064,0,14.465-3.584,17.793-7.682h0.511v4.865
							c0,12.928-6.912,19.84-18.048,19.84c-9.088,0-14.721-6.528-17.025-12.032l-12.929,5.376
							c3.712,8.961,13.569,19.97,29.954,19.97c17.409,0,32.129-10.24,32.129-35.201V59.321H538.017z M520.993,111.548
							c-10.24,0-18.817-8.576-18.817-20.353c0-11.904,8.577-20.609,18.817-20.609c10.112,0,18.049,8.705,18.049,20.609
							C539.042,102.972,531.105,111.548,520.993,111.548"/>
						<rect x="562.338" y="23.479" clip-path="url(#SVGID_10_)" width="14.849" height="99.333"/>
						<path clip-path="url(#SVGID_10_)" d="M617.893,111.548c-7.552,0-12.928-3.456-16.384-10.239l45.186-18.689l-1.536-3.841
							c-2.816-7.552-11.393-21.505-28.93-21.505c-17.409,0-31.873,13.697-31.873,33.794c0,18.944,14.336,33.793,33.537,33.793
							c15.489,0,24.45-9.473,28.162-14.977l-11.521-7.68C630.694,107.836,625.446,111.548,617.893,111.548 M616.741,70.33
							c5.889,0,10.881,2.944,12.545,7.168l-30.209,12.545C598.692,76.986,609.189,70.33,616.741,70.33"/>
					</g>
				</g>
			</g>
		</g>
	</g>
	<g clip-path="url(#SVGID_2_)">
		<defs>
			<path id="SVGID_11_" d="M45.188,2.813l-40.36,65.94c-1.08,1.76-1.64,3.86-1.64,6.06s0.56,4.3,1.64,6.06l40.36,65.94h42l-44-72
				l44-72H45.188z M99.748,2.813l44,72l-44,72h42l40.36-65.94c1.08-1.76,1.64-3.859,1.64-6.06s-0.56-4.3-1.62-6.06l-40.38-65.94
				H99.748z"/>
		</defs>
		<clipPath id="SVGID_12_">
			<use xlink:href="#SVGID_11_"  overflow="visible"/>
		</clipPath>
		<polygon clip-path="url(#SVGID_12_)" fill="#DB4437" points="87.188,2.813 45.188,2.813 22.167,40.413 22.167,74.813 
			43.188,74.813 		"/>
		<polygon clip-path="url(#SVGID_12_)" fill="#FFCD40" points="99.748,146.813 141.748,146.813 164.768,109.213 164.768,74.813 
			143.748,74.813 		"/>
		<g opacity="0.2" clip-path="url(#SVGID_12_)" enable-background="new    ">
			<g>
				<defs>
					<rect id="SVGID_13_" x="87.188" y="-5.188" width="110" height="132"/>
				</defs>
				<clipPath id="SVGID_14_">
					<use xlink:href="#SVGID_13_"  overflow="visible"/>
				</clipPath>
				<g clip-path="url(#SVGID_14_)">
					<defs>
						<rect id="SVGID_15_" x="87.188" y="-5.188" width="110" height="132"/>
					</defs>
					<clipPath id="SVGID_16_">
						<use xlink:href="#SVGID_15_"  overflow="visible"/>
					</clipPath>
					<g clip-path="url(#SVGID_16_)">
						
							<image overflow="visible" width="55" height="67" xlink:href="E6E0AF4B.png"  transform="matrix(2 0 0 1.9701 87.1875 -5.1885)">
						</image>
					</g>
				</g>
			</g>
		</g>
		<path clip-path="url(#SVGID_12_)" fill="#0F9D58" d="M164.768,109.213l17.34-28.341c1.08-1.76,1.64-3.859,1.64-6.06
			s-0.56-4.3-1.64-6.06l-40.36-65.94h-42L164.768,109.213z"/>
	</g>
	<g clip-path="url(#SVGID_2_)">
		<defs>
			<polygon id="SVGID_17_" points="22.17,40.417 43.188,74.813 48.263,66.507 22.171,40.417 			"/>
		</defs>
		<clipPath id="SVGID_18_">
			<use xlink:href="#SVGID_17_"  overflow="visible"/>
		</clipPath>
		<defs>
			<filter id="Adobe_OpacityMaskFilter" filterUnits="userSpaceOnUse" x="22.17" y="40.417" width="26.092" height="34.396">
				<feColorMatrix  type="matrix" values="1 0 0 0 0  0 1 0 0 0  0 0 1 0 0  0 0 0 1 0"/>
			</filter>
		</defs>
		<mask maskUnits="userSpaceOnUse" x="22.17" y="40.417" width="26.092" height="34.396" id="SVGID_19_">
			<g filter="url(#Adobe_OpacityMaskFilter)">
				
					<radialGradient id="SVGID_20_" cx="-123.0454" cy="302.8945" r="1.0007" gradientTransform="matrix(40.1796 0 0 40.1796 4966.0313 -12129.7188)" gradientUnits="userSpaceOnUse">
					<stop  offset="0" style="stop-color:#333333"/>
					<stop  offset="1" style="stop-color:#050505"/>
				</radialGradient>
				<rect x="22.17" y="40.417" clip-path="url(#SVGID_18_)" fill="url(#SVGID_20_)" width="26.092" height="34.396"/>
			</g>
		</mask>
		
			<radialGradient id="SVGID_21_" cx="-123.0454" cy="302.8945" r="1.0007" gradientTransform="matrix(40.1796 0 0 40.1796 4966.0313 -12129.7188)" gradientUnits="userSpaceOnUse">
			<stop  offset="0" style="stop-color:#3E2723"/>
			<stop  offset="1" style="stop-color:#3E2723"/>
		</radialGradient>
		
			<rect x="22.17" y="40.417" clip-path="url(#SVGID_18_)" mask="url(#SVGID_19_)" fill="url(#SVGID_21_)" width="26.092" height="34.396"/>
	</g>
	<g clip-path="url(#SVGID_2_)">
		<defs>
			<path id="SVGID_22_" d="M45.188,2.813l-40.36,65.94c-1.08,1.76-1.64,3.86-1.64,6.06s0.56,4.3,1.64,6.06l40.36,65.94h42l-44-72
				l44-72H45.188z M99.748,2.813l44,72l-44,72h42l40.36-65.94c1.08-1.76,1.64-3.859,1.64-6.06s-0.56-4.3-1.62-6.06l-40.38-65.94
				H99.748z"/>
		</defs>
		<clipPath id="SVGID_23_">
			<use xlink:href="#SVGID_22_"  overflow="visible"/>
		</clipPath>
		<g opacity="0.2" clip-path="url(#SVGID_23_)" enable-background="new    ">
			<g>
				<defs>
					<rect id="SVGID_24_" x="-4.813" y="26.812" width="108" height="134"/>
				</defs>
				<clipPath id="SVGID_25_">
					<use xlink:href="#SVGID_24_"  overflow="visible"/>
				</clipPath>
				<g clip-path="url(#SVGID_25_)">
					<defs>
						<rect id="SVGID_26_" x="-4.813" y="26.812" width="108" height="134"/>
					</defs>
					<clipPath id="SVGID_27_">
						<use xlink:href="#SVGID_26_"  overflow="visible"/>
					</clipPath>
					<g transform="matrix(1 0 0 1 0 1.907349e-006)" clip-path="url(#SVGID_27_)">
						
							<image overflow="visible" width="54" height="68" xlink:href="E6E0AF49.png"  transform="matrix(2 0 0 1.9706 -4.8125 26.8115)">
						</image>
					</g>
				</g>
			</g>
		</g>
		<path clip-path="url(#SVGID_23_)" fill="#4285F4" d="M43.188,74.813l-21.02-34.4l-17.34,28.34c-1.08,1.76-1.64,3.86-1.64,6.06
			s0.56,4.3,1.64,6.06l40.36,65.94h42L43.188,74.813z"/>
		<g opacity="0.2" clip-path="url(#SVGID_23_)">
			<g>
				<defs>
					<rect id="SVGID_28_" x="22.167" y="2.813" width="65.02" height="38.1"/>
				</defs>
				<clipPath id="SVGID_29_">
					<use xlink:href="#SVGID_28_"  overflow="visible"/>
				</clipPath>
				<polygon clip-path="url(#SVGID_29_)" fill="#FFFFFF" points="85.967,3.813 87.188,2.813 45.188,2.813 22.167,40.413 
					22.467,40.913 45.188,3.813 				"/>
			</g>
		</g>
		<g opacity="0.2" clip-path="url(#SVGID_23_)">
			<g>
				<defs>
					<rect id="SVGID_30_" x="42.888" y="2.813" width="44.3" height="72"/>
				</defs>
				<clipPath id="SVGID_31_">
					<use xlink:href="#SVGID_30_"  overflow="visible"/>
				</clipPath>
				<polygon clip-path="url(#SVGID_31_)" fill="#3E2723" points="42.888,74.313 43.188,74.813 87.188,2.813 85.967,3.813 				"/>
			</g>
		</g>
		<g opacity="0.1" clip-path="url(#SVGID_23_)">
			<g>
				<defs>
					<rect id="SVGID_32_" x="22.467" y="40.413" width="21.02" height="34.4"/>
				</defs>
				<clipPath id="SVGID_33_">
					<use xlink:href="#SVGID_32_"  overflow="visible"/>
				</clipPath>
				<polygon clip-path="url(#SVGID_33_)" fill="#3E2723" points="22.467,40.913 43.188,74.813 43.487,74.313 22.788,40.413 				"/>
			</g>
		</g>
		<g opacity="0.2" clip-path="url(#SVGID_23_)">
			<g>
				<defs>
					<rect id="SVGID_34_" x="99.748" y="2.813" width="84.02" height="72.5"/>
				</defs>
				<clipPath id="SVGID_35_">
					<use xlink:href="#SVGID_34_"  overflow="visible"/>
				</clipPath>
				<path clip-path="url(#SVGID_35_)" fill="#FFFFFF" d="M182.127,69.752c0.98,1.62,1.52,3.54,1.6,5.56c0-0.16,0.04-0.34,0.04-0.5
					c0-2.2-0.56-4.3-1.64-6.06l-40.38-65.94h-42l1.22,1h40.78L182.127,69.752z"/>
			</g>
		</g>
		<g opacity="0.2" clip-path="url(#SVGID_23_)">
			<g>
				<defs>
					<rect id="SVGID_36_" x="99.748" y="2.813" width="65.32" height="106.4"/>
				</defs>
				<clipPath id="SVGID_37_">
					<use xlink:href="#SVGID_36_"  overflow="visible"/>
				</clipPath>
				<polygon clip-path="url(#SVGID_37_)" fill="#263238" points="100.967,3.813 99.748,2.813 143.748,74.813 164.768,109.213 
					165.067,108.713 148.587,81.713 				"/>
			</g>
		</g>
		<g opacity="0.15" clip-path="url(#SVGID_23_)">
			<g>
				<defs>
					<rect id="SVGID_38_" x="99.748" y="108.713" width="65.02" height="38.1"/>
				</defs>
				<clipPath id="SVGID_39_">
					<use xlink:href="#SVGID_38_"  overflow="visible"/>
				</clipPath>
				<polygon clip-path="url(#SVGID_39_)" fill="#3E2723" points="100.967,145.813 99.748,146.813 141.748,146.813 164.768,109.213 
					164.467,108.713 141.748,145.813 				"/>
			</g>
		</g>
		<g opacity="0.2" clip-path="url(#SVGID_23_)">
			<g>
				<defs>
					<rect id="SVGID_40_" x="99.748" y="74.813" width="44.32" height="72"/>
				</defs>
				<clipPath id="SVGID_41_">
					<use xlink:href="#SVGID_40_"  overflow="visible"/>
				</clipPath>
				<polygon clip-path="url(#SVGID_41_)" fill="#FFFFFF" points="144.067,75.313 143.748,74.813 99.748,146.813 100.967,145.813 
									"/>
			</g>
		</g>
		<g opacity="0.2" clip-path="url(#SVGID_23_)">
			<g>
				<defs>
					<rect id="SVGID_42_" x="3.188" y="74.313" width="84" height="72.5"/>
				</defs>
				<clipPath id="SVGID_43_">
					<use xlink:href="#SVGID_42_"  overflow="visible"/>
				</clipPath>
				<path clip-path="url(#SVGID_43_)" fill="#263238" d="M4.828,79.872c-0.98-1.619-1.52-3.54-1.6-5.56
					c-0.02,0.16-0.04,0.34-0.04,0.5c0,2.2,0.56,4.3,1.64,6.06l40.36,65.94h42l-1.22-1h-40.78L4.828,79.872z"/>
			</g>
		</g>
		<g opacity="0.2" clip-path="url(#SVGID_23_)">
			<g>
				<defs>
					<rect id="SVGID_44_" x="3.188" y="40.413" width="84" height="106.4"/>
				</defs>
				<clipPath id="SVGID_45_">
					<use xlink:href="#SVGID_44_"  overflow="visible"/>
				</clipPath>
				<path clip-path="url(#SVGID_45_)" fill="#FFFFFF" d="M22.167,41.413l21.02,34.4l42.78,70l1.22,1l-44-72l-21.02-34.4
					l-17.34,28.34c-1.08,1.76-1.64,3.86-1.64,6.06c0,0.16,0.02,0.34,0.04,0.5c0.08-2.02,0.62-3.94,1.6-5.56L22.167,41.413z"/>
			</g>
		</g>
	</g>
	<g clip-path="url(#SVGID_2_)">
		<defs>
			<rect id="SVGID_46_" x="-124.813" y="-149.188" width="1538" height="448"/>
		</defs>
		<clipPath id="SVGID_47_">
			<use xlink:href="#SVGID_46_"  overflow="visible"/>
		</clipPath>
	</g>
</g>
<rect x="1996" y="473" fill="#FFFFFF" width="30" height="2"/>
</svg>
