<?xml version="1.0" encoding="utf-8"?>
<!-- Generator: Adobe Illustrator 16.0.0, SVG Export Plug-In . SVG Version: 6.00 Build 0)  -->
<!DOCTYPE svg PUBLIC "-//W3C//DTD SVG 1.1//EN" "http://www.w3.org/Graphics/SVG/1.1/DTD/svg11.dtd">
<svg version="1.1" xmlns="http://www.w3.org/2000/svg" xmlns:xlink="http://www.w3.org/1999/xlink" x="0px" y="0px" width="185px"
	 height="188px" viewBox="0 0 185 188" enable-background="new 0 0 185 188" xml:space="preserve">
<g id="Layer_1" display="none">
	
		<radialGradient id="SVGID_1_" cx="-563.1113" cy="-776.1968" r="20.1137" gradientTransform="matrix(0.498 0 0 -0.498 298.2111 -336.7143)" gradientUnits="userSpaceOnUse">
		<stop  offset="0" style="stop-color:#FFCF4F"/>
		<stop  offset="1" style="stop-color:#F4C236"/>
	</radialGradient>
	<path display="inline" fill="url(#SVGID_1_)" d="M9.068,61h6.791c1.607,0,3.604-1.128,4.432-2.511l5.72-9.521
		c0.677-1.396,0.653-3.426-0.119-4.713l-3.378-5.592L9.068,61z"/>
	
		<radialGradient id="SVGID_2_" cx="-575.1621" cy="-765.9849" r="27.6566" gradientTransform="matrix(0.498 0 0 -0.498 298.2111 -336.7143)" gradientUnits="userSpaceOnUse">
		<stop  offset="0" style="stop-color:#08A960"/>
		<stop  offset="1" style="stop-color:#07914B"/>
	</radialGradient>
	<path display="inline" fill="url(#SVGID_2_)" d="M16.368,33.514L1.266,58.763C0.683,60.011,1.289,61,2.787,61h6.281l13.446-22.335
		l-6.146-10.173C17.197,29.87,17.197,32.13,16.368,33.514"/>
	
		<radialGradient id="SVGID_3_" cx="-565.7119" cy="-726.3032" r="40.538" gradientTransform="matrix(0.498 0 0 -0.498 298.2111 -336.7143)" gradientUnits="userSpaceOnUse">
		<stop  offset="0" style="stop-color:#567FC0"/>
		<stop  offset="1" style="stop-color:#557FC0"/>
	</radialGradient>
	<path display="inline" fill="url(#SVGID_3_)" d="M2.787,1C1.174,1,0.534,2.133,1.363,3.511l24.529,40.745
		c0.772,1.288,0.795,3.317,0.119,4.713l5.963-9.925L9.072,1H2.787z"/>
	
		<radialGradient id="SVGID_4_" cx="-553.6465" cy="-716.3394" r="33.0573" gradientTransform="matrix(0.498 0 0 -0.498 298.2111 -336.7143)" gradientUnits="userSpaceOnUse">
		<stop  offset="0" style="stop-color:#E14C40"/>
		<stop  offset="1" style="stop-color:#CD392D"/>
	</radialGradient>
	<path display="inline" fill="url(#SVGID_4_)" d="M9.072,1l22.903,38.045l3.321-5.53c0.83-1.385,0.83-3.645,0-5.023L20.292,3.511
		C19.463,2.133,17.467,1,15.86,1H9.072L9.072,1z"/>
	
		<radialGradient id="SVGID_5_" cx="-563.1113" cy="-902.7021" r="20.1139" gradientTransform="matrix(0.498 0 0 -0.498 298.2111 -336.7143)" gradientUnits="userSpaceOnUse">
		<stop  offset="0" style="stop-color:#CCCCCC"/>
		<stop  offset="1" style="stop-color:#C0C0C0"/>
	</radialGradient>
	<path display="inline" fill="url(#SVGID_5_)" d="M9.068,124h6.791c1.607,0,3.604-1.128,4.432-2.511l5.72-9.519
		c0.677-1.396,0.653-3.429-0.119-4.716l-3.378-5.592L9.068,124z"/>
	
		<radialGradient id="SVGID_6_" cx="-575.1621" cy="-892.4912" r="27.6563" gradientTransform="matrix(0.498 0 0 -0.498 298.2111 -336.7143)" gradientUnits="userSpaceOnUse">
		<stop  offset="0" style="stop-color:#A0A0A0"/>
		<stop  offset="1" style="stop-color:#7B7B7B"/>
	</radialGradient>
	<path display="inline" fill="url(#SVGID_6_)" d="M16.368,96.514l-15.102,25.25C0.683,123.011,1.289,124,2.787,124h6.281
		l13.446-22.335l-6.146-10.173C17.197,92.87,17.197,95.13,16.368,96.514"/>
	
		<radialGradient id="SVGID_7_" cx="-565.7119" cy="-852.8096" r="40.5378" gradientTransform="matrix(0.498 0 0 -0.498 298.2111 -336.7143)" gradientUnits="userSpaceOnUse">
		<stop  offset="0" style="stop-color:#848484"/>
		<stop  offset="1" style="stop-color:#838383"/>
	</radialGradient>
	<path display="inline" fill="url(#SVGID_7_)" d="M2.787,64c-1.613,0-2.254,1.133-1.424,2.511l24.529,40.745
		c0.772,1.288,0.795,3.317,0.119,4.713l5.963-9.925L9.072,64H2.787z"/>
	
		<radialGradient id="SVGID_8_" cx="-553.6465" cy="-842.8457" r="33.057" gradientTransform="matrix(0.498 0 0 -0.498 298.2111 -336.7143)" gradientUnits="userSpaceOnUse">
		<stop  offset="0" style="stop-color:#626262"/>
		<stop  offset="1" style="stop-color:#474747"/>
	</radialGradient>
	<path display="inline" fill="url(#SVGID_8_)" d="M9.072,64l22.903,38.045l3.321-5.529c0.83-1.386,0.83-3.646,0-5.021l-15.004-24.98
		C19.463,65.133,17.467,64,15.86,64H9.072L9.072,64z"/>
	
		<radialGradient id="SVGID_9_" cx="-563.1113" cy="-1029.209" r="20.1134" gradientTransform="matrix(0.498 0 0 -0.498 298.2111 -336.7143)" gradientUnits="userSpaceOnUse">
		<stop  offset="0" style="stop-color:#FFCF4F"/>
		<stop  offset="1" style="stop-color:#F4C236"/>
	</radialGradient>
	<path display="inline" fill="url(#SVGID_9_)" d="M9.068,187h6.791c1.607,0,3.604-1.128,4.432-2.511l5.72-9.519
		c0.677-1.396,0.653-3.429-0.119-4.716l-3.378-5.592L9.068,187z"/>
	
		<radialGradient id="SVGID_10_" cx="-575.1621" cy="-1018.9971" r="27.6563" gradientTransform="matrix(0.498 0 0 -0.498 298.2111 -336.7143)" gradientUnits="userSpaceOnUse">
		<stop  offset="0" style="stop-color:#08A960"/>
		<stop  offset="1" style="stop-color:#07914B"/>
	</radialGradient>
	<path display="inline" fill="url(#SVGID_10_)" d="M16.368,159.514l-15.102,25.25C0.683,186.011,1.289,187,2.787,187h6.281
		l13.446-22.335l-6.146-10.173C17.197,155.87,17.197,158.13,16.368,159.514"/>
	
		<radialGradient id="SVGID_11_" cx="-565.7119" cy="-979.3154" r="40.5378" gradientTransform="matrix(0.498 0 0 -0.498 298.2111 -336.7143)" gradientUnits="userSpaceOnUse">
		<stop  offset="0" style="stop-color:#567FC0"/>
		<stop  offset="1" style="stop-color:#557FC0"/>
	</radialGradient>
	<path display="inline" fill="url(#SVGID_11_)" d="M2.787,127c-1.613,0-2.254,1.133-1.424,2.511l24.529,40.745
		c0.772,1.288,0.795,3.317,0.119,4.713l5.963-9.925L9.072,127H2.787z"/>
	
		<radialGradient id="SVGID_12_" cx="-553.6465" cy="-969.3516" r="33.057" gradientTransform="matrix(0.498 0 0 -0.498 298.2111 -336.7143)" gradientUnits="userSpaceOnUse">
		<stop  offset="0" style="stop-color:#E14C40"/>
		<stop  offset="1" style="stop-color:#CD392D"/>
	</radialGradient>
	<path display="inline" fill="url(#SVGID_12_)" d="M9.072,127l22.903,38.045l3.321-5.529c0.83-1.386,0.83-3.646,0-5.021
		l-15.004-24.98C19.463,128.133,17.467,127,15.86,127H9.072L9.072,127z"/>
	<g display="inline">
		<g>
			<path fill="#4E4E4E" d="M116.07,19.404c0,2.677-0.731,4.739-2.194,6.186c-1.461,1.447-3.517,2.172-6.165,2.172h-5.148V11.729
				h5.508c2.556,0,4.525,0.657,5.916,1.974C115.374,15.019,116.07,16.919,116.07,19.404z M111.607,19.559
				c0-1.469-0.289-2.559-0.865-3.268c-0.577-0.709-1.452-1.064-2.628-1.064h-1.253v8.983h0.959c1.307,0,2.265-0.383,2.875-1.146
				C111.302,22.298,111.607,21.13,111.607,19.559z M123.288,27.982c-2.054,0-3.647-0.55-4.785-1.651
				c-1.135-1.1-1.703-2.667-1.703-4.7c0-2.098,0.526-3.709,1.578-4.831s2.554-1.684,4.506-1.684c1.857,0,3.292,0.488,4.306,1.465
				c1.015,0.976,1.52,2.381,1.52,4.217v1.908H121.1c0.029,0.695,0.282,1.24,0.756,1.634c0.479,0.396,1.123,0.592,1.943,0.592
				c0.747,0,1.436-0.071,2.064-0.213c0.626-0.143,1.307-0.386,2.039-0.729v3.082c-0.666,0.344-1.356,0.581-2.066,0.713
				C125.123,27.917,124.275,27.982,123.288,27.982z M123.037,18.035c-0.5,0-0.919,0.159-1.256,0.477
				c-0.34,0.319-0.536,0.818-0.594,1.497h3.657c-0.017-0.599-0.185-1.078-0.507-1.436C124.016,18.213,123.581,18.035,123.037,18.035
				z M133.009,27.763l-4.702-12.426h4.44l2.091,7.348l0.042,0.187l0.065,0.312l0.061,0.385l0.027,0.378h0.074
				c0-0.38,0.064-0.793,0.197-1.24l2.188-7.37h4.43l-4.703,12.426H133.009L133.009,27.763z M146.538,27.763h-4.233V11.729h9.404
				v3.476h-5.171v3.061h4.769v3.476h-4.769V27.763z M158.688,27.982c-2.055,0-3.646-0.55-4.785-1.651
				c-1.135-1.1-1.701-2.667-1.701-4.7c0-2.098,0.523-3.709,1.576-4.831c1.054-1.122,2.556-1.684,4.508-1.684
				c1.855,0,3.292,0.488,4.305,1.465c1.016,0.976,1.52,2.381,1.52,4.217v1.908H156.5c0.029,0.695,0.281,1.24,0.756,1.634
				c0.477,0.396,1.122,0.592,1.943,0.592c0.746,0,1.436-0.071,2.063-0.213c0.627-0.143,1.309-0.386,2.04-0.729v3.082
				c-0.667,0.344-1.356,0.581-2.065,0.713C160.521,27.917,159.674,27.982,158.688,27.982L158.688,27.982z M158.436,18.035
				c-0.5,0-0.918,0.159-1.256,0.477c-0.339,0.319-0.535,0.818-0.593,1.497h3.657c-0.016-0.599-0.184-1.078-0.506-1.436
				C159.414,18.213,158.98,18.035,158.436,18.035z M174.699,23.945c0,1.331-0.45,2.336-1.35,3.016
				c-0.9,0.68-2.191,1.021-3.875,1.021c-0.914,0-1.709-0.049-2.385-0.148s-1.361-0.28-2.066-0.543v-3.433
				c0.66,0.293,1.384,0.534,2.172,0.724c0.787,0.19,1.488,0.285,2.104,0.285c0.926,0,1.385-0.211,1.385-0.635
				c0-0.22-0.129-0.416-0.389-0.587c-0.256-0.172-1.007-0.506-2.247-1.004c-1.132-0.468-1.923-1-2.373-1.596
				c-0.448-0.595-0.676-1.35-0.676-2.264c0-1.155,0.44-2.055,1.329-2.698c0.884-0.644,2.137-0.966,3.754-0.966
				c0.813,0,1.577,0.09,2.292,0.269c0.714,0.179,1.456,0.44,2.228,0.784l-1.154,2.764c-0.566-0.255-1.165-0.473-1.797-0.652
				c-0.629-0.179-1.146-0.269-1.545-0.269c-0.695,0-1.043,0.172-1.043,0.515c0,0.212,0.121,0.393,0.361,0.543
				c0.242,0.15,0.945,0.455,2.106,0.916c0.86,0.359,1.507,0.71,1.932,1.053c0.427,0.344,0.736,0.748,0.938,1.212
				C174.6,22.716,174.699,23.28,174.699,23.945z M181.766,24.594c0.572,0,1.258-0.143,2.055-0.428v3.126
				c-0.57,0.248-1.116,0.426-1.639,0.532c-0.518,0.106-1.125,0.159-1.822,0.159c-1.43,0-2.461-0.353-3.09-1.058
				c-0.633-0.706-0.949-1.79-0.949-3.252V18.55h-1.487v-1.744l1.896-1.349l1.1-2.61h2.785v2.489h3.025v3.214h-3.025v4.837
				C180.609,24.191,180.995,24.594,181.766,24.594z"/>
		</g>
		<g>
			<path fill="#4E4E4E" d="M55.729,18.75h6.921v8.643c-1.88,0.644-3.945,0.966-6.197,0.966c-2.472,0-4.383-0.717-5.731-2.151
				c-1.349-1.433-2.024-3.477-2.024-6.131c0-2.589,0.739-4.603,2.216-6.044c1.478-1.44,3.547-2.161,6.209-2.161
				c1.009,0,1.961,0.095,2.857,0.285c0.895,0.19,1.676,0.432,2.342,0.724l-1.371,3.4c-1.155-0.57-2.424-0.854-3.806-0.854
				c-1.265,0-2.243,0.411-2.934,1.234c-0.691,0.822-1.037,1.998-1.037,3.527c0,1.499,0.313,2.641,0.938,3.428
				c0.625,0.786,1.526,1.179,2.704,1.179c0.644,0,1.236-0.062,1.777-0.187v-2.512H55.73L55.729,18.75L55.729,18.75z M78.184,19.781
				c0,2.677-0.737,4.739-2.21,6.188c-1.474,1.447-3.545,2.172-6.215,2.172h-5.188V12.103h5.551c2.574,0,4.561,0.658,5.961,1.975
				C77.484,15.395,78.184,17.295,78.184,19.781z M73.687,19.936c0-1.47-0.291-2.56-0.872-3.268c-0.581-0.71-1.464-1.065-2.649-1.065
				h-1.262v8.984h0.965c1.317,0,2.281-0.382,2.896-1.146C73.38,22.677,73.687,21.507,73.687,19.936L73.687,19.936z M86.15,18.75
				h6.92v8.643c-1.879,0.644-3.944,0.966-6.196,0.966c-2.472,0-4.383-0.717-5.731-2.151c-1.349-1.433-2.024-3.477-2.024-6.131
				c0-2.589,0.739-4.603,2.216-6.044c1.478-1.44,3.547-2.161,6.209-2.161c1.009,0,1.961,0.095,2.857,0.285
				c0.895,0.19,1.676,0.432,2.342,0.724l-1.371,3.4c-1.155-0.57-2.424-0.854-3.806-0.854c-1.265,0-2.243,0.411-2.934,1.234
				c-0.691,0.822-1.037,1.998-1.037,3.527c0,1.499,0.313,2.641,0.938,3.428c0.625,0.786,1.526,1.179,2.704,1.179
				c0.644,0,1.236-0.062,1.777-0.187v-2.512H86.15V18.75L86.15,18.75z"/>
		</g>
		<g>
			<path fill="#4E4E4E" stroke="#4E4E4E" stroke-width="0.2167" stroke-miterlimit="10" d="M49.66,48.294V47.14l1.475-1.433
				c3.549-3.378,5.152-5.174,5.174-7.27c0-1.411-0.685-2.715-2.758-2.715c-1.261,0-2.309,0.641-2.951,1.175l-0.598-1.325
				c0.961-0.813,2.331-1.412,3.934-1.412c2.994,0,4.255,2.053,4.255,4.042c0,2.565-1.859,4.639-4.79,7.462L52.29,46.69v0.043h6.243
				v1.561H49.66z"/>
			<path fill="#4E4E4E" stroke="#4E4E4E" stroke-width="0.2167" stroke-miterlimit="10" d="M68.766,41.197
				c0,4.725-1.752,7.333-4.832,7.333c-2.715,0-4.554-2.544-4.597-7.141c0-4.661,2.01-7.228,4.832-7.228
				C67.099,34.161,68.766,36.771,68.766,41.197z M61.219,41.41c0,3.613,1.111,5.666,2.822,5.666c1.924,0,2.844-2.245,2.844-5.794
				c0-3.421-0.876-5.666-2.822-5.666C62.417,35.616,61.219,37.626,61.219,41.41z"/>
			<path fill="#4E4E4E" stroke="#4E4E4E" stroke-width="0.2167" stroke-miterlimit="10" d="M73.104,36.151h-0.043l-2.415,1.304
				l-0.364-1.433l3.036-1.625h1.604v13.897h-1.817L73.104,36.151L73.104,36.151z"/>
			<path fill="#4E4E4E" stroke="#4E4E4E" stroke-width="0.2167" stroke-miterlimit="10" d="M85.821,35.979h-5.302l-0.535,3.571
				c0.321-0.042,0.621-0.085,1.134-0.085c1.069,0,2.139,0.235,2.994,0.748c1.089,0.62,1.989,1.817,1.989,3.57
				c0,2.716-2.16,4.747-5.175,4.747c-1.518,0-2.801-0.427-3.464-0.855l0.47-1.433c0.578,0.343,1.71,0.771,2.972,0.771
				c1.775,0,3.293-1.154,3.293-3.015c-0.021-1.795-1.219-3.079-3.999-3.079c-0.79,0-1.411,0.085-1.924,0.15l0.897-6.671h6.65V35.979
				z"/>
			<path fill="#4E4E4E" stroke="#4E4E4E" stroke-width="0.2167" stroke-miterlimit="10" d="M95.396,48.294l-4.705-14.41h2.01
				l2.243,7.098c0.619,1.946,1.154,3.699,1.541,5.389h0.041c0.406-1.668,1.007-3.485,1.646-5.367l2.438-7.12h1.988l-5.15,14.41
				H95.396z"/>
			<path fill="#4E4E4E" stroke="#4E4E4E" stroke-width="0.2167" stroke-miterlimit="10" d="M105.854,35.038
				c0.021,0.642-0.448,1.155-1.198,1.155c-0.661,0-1.132-0.513-1.132-1.155c0-0.662,0.49-1.175,1.177-1.175
				C105.404,33.863,105.854,34.376,105.854,35.038z M103.76,48.294V37.946h1.881v10.349L103.76,48.294L103.76,48.294z"/>
			<path fill="#4E4E4E" stroke="#4E4E4E" stroke-width="0.2167" stroke-miterlimit="10" d="M109.811,43.463
				c0.043,2.544,1.668,3.591,3.549,3.591c1.349,0,2.16-0.234,2.865-0.534l0.319,1.346c-0.662,0.301-1.794,0.642-3.44,0.642
				c-3.188,0-5.09-2.095-5.09-5.217s1.84-5.58,4.854-5.58c3.376,0,4.274,2.972,4.274,4.875c0,0.384-0.043,0.684-0.063,0.876
				L109.811,43.463L109.811,43.463z M115.325,42.116c0.022-1.197-0.491-3.057-2.608-3.057c-1.9,0-2.734,1.753-2.886,3.057H115.325z"
				/>
			<path fill="#4E4E4E" stroke="#4E4E4E" stroke-width="0.2167" stroke-miterlimit="10" d="M121.741,34.974v2.972h2.694v1.433
				h-2.694v5.581c0,1.282,0.362,2.009,1.409,2.009c0.492,0,0.854-0.063,1.092-0.128l0.086,1.412
				c-0.363,0.15-0.939,0.256-1.669,0.256c-0.876,0-1.581-0.277-2.03-0.79c-0.533-0.557-0.727-1.477-0.727-2.695v-5.645h-1.604
				v-1.433h1.604v-2.479L121.741,34.974z"/>
			<path fill="#4E4E4E" stroke="#4E4E4E" stroke-width="0.2167" stroke-miterlimit="10" d="M126.553,40.747
				c0-1.069-0.022-1.945-0.087-2.801h1.667l0.108,1.71h0.043c0.512-0.983,1.71-1.945,3.421-1.945c1.432,0,3.656,0.855,3.656,4.404
				v6.179h-1.883v-5.965c0-1.667-0.619-3.057-2.395-3.057c-1.241,0-2.204,0.876-2.523,1.925c-0.086,0.234-0.129,0.556-0.129,0.876
				v6.221h-1.88L126.553,40.747L126.553,40.747z"/>
			<path fill="#4E4E4E" stroke="#4E4E4E" stroke-width="0.2167" stroke-miterlimit="10" d="M144.148,48.294L144,46.991h-0.064
				c-0.576,0.812-1.688,1.539-3.164,1.539c-2.097,0-3.164-1.476-3.164-2.972c0-2.501,2.226-3.87,6.223-3.849v-0.213
				c0-0.855-0.232-2.395-2.352-2.395c-0.963,0-1.969,0.299-2.693,0.77l-0.43-1.24c0.854-0.557,2.096-0.919,3.4-0.919
				c3.163,0,3.934,2.16,3.934,4.233v3.87c0,0.899,0.043,1.775,0.17,2.48L144.148,48.294L144.148,48.294z M143.872,43.013
				c-2.054-0.042-4.383,0.321-4.383,2.331c0,1.218,0.812,1.796,1.771,1.796c1.349,0,2.203-0.855,2.503-1.732
				c0.063-0.192,0.106-0.406,0.106-0.598L143.872,43.013L143.872,43.013z"/>
			<path fill="#4E4E4E" stroke="#4E4E4E" stroke-width="0.2167" stroke-miterlimit="10" d="M148.729,40.747
				c0-1.069-0.021-1.945-0.088-2.801h1.646l0.086,1.668h0.064c0.576-0.983,1.539-1.902,3.248-1.902c1.412,0,2.48,0.855,2.932,2.074
				h0.043c0.32-0.577,0.729-1.027,1.152-1.347c0.619-0.47,1.308-0.727,2.289-0.727c1.367,0,3.398,0.898,3.398,4.49v6.093h-1.839
				v-5.858c0-1.989-0.728-3.186-2.246-3.186c-1.067,0-1.901,0.792-2.224,1.71c-0.086,0.257-0.148,0.599-0.148,0.941v6.393h-1.838
				v-6.2c0-1.646-0.729-2.844-2.16-2.844c-1.176,0-2.031,0.941-2.331,1.882c-0.108,0.277-0.149,0.599-0.149,0.918v6.243h-1.836
				V40.747L148.729,40.747z"/>
		</g>
	</g>
	<g display="inline">
		<g>
			<path fill="#4E4E4E" d="M116.07,82.42c0,2.677-0.731,4.739-2.194,6.186c-1.461,1.447-3.517,2.172-6.165,2.172h-5.148V74.744
				h5.508c2.556,0,4.525,0.657,5.916,1.974C115.374,78.034,116.07,79.935,116.07,82.42z M111.607,82.574
				c0-1.469-0.289-2.559-0.865-3.268c-0.577-0.709-1.452-1.064-2.628-1.064h-1.253v8.983h0.959c1.307,0,2.265-0.383,2.875-1.146
				C111.302,85.314,111.607,84.146,111.607,82.574z M123.288,90.998c-2.054,0-3.647-0.55-4.785-1.651
				c-1.135-1.1-1.703-2.667-1.703-4.7c0-2.098,0.526-3.709,1.578-4.831s2.554-1.684,4.506-1.684c1.857,0,3.292,0.488,4.306,1.465
				c1.015,0.976,1.52,2.381,1.52,4.217v1.908H121.1c0.029,0.695,0.282,1.24,0.756,1.634c0.479,0.396,1.123,0.592,1.943,0.592
				c0.747,0,1.436-0.071,2.064-0.213c0.626-0.143,1.307-0.386,2.039-0.73v3.082c-0.666,0.344-1.356,0.581-2.066,0.713
				C125.123,90.932,124.275,90.998,123.288,90.998z M123.037,81.05c-0.5,0-0.919,0.159-1.256,0.477
				c-0.34,0.319-0.536,0.818-0.594,1.497h3.657c-0.017-0.599-0.185-1.078-0.507-1.436C124.016,81.229,123.581,81.05,123.037,81.05z
				 M133.009,90.778l-4.702-12.426h4.44l2.091,7.348l0.042,0.187l0.065,0.313l0.061,0.385l0.027,0.378h0.074
				c0-0.38,0.064-0.793,0.197-1.24l2.188-7.37h4.43l-4.703,12.426L133.009,90.778L133.009,90.778z M146.538,90.778h-4.233V74.744
				h9.404v3.476h-5.171v3.063h4.769v3.476h-4.769V90.778z M158.688,90.998c-2.055,0-3.646-0.55-4.785-1.651
				c-1.135-1.1-1.701-2.667-1.701-4.7c0-2.098,0.523-3.709,1.576-4.831c1.054-1.122,2.556-1.684,4.508-1.684
				c1.855,0,3.292,0.488,4.305,1.465c1.016,0.976,1.52,2.381,1.52,4.217v1.908H156.5c0.029,0.695,0.281,1.24,0.756,1.634
				c0.477,0.396,1.122,0.592,1.943,0.592c0.746,0,1.436-0.071,2.063-0.213c0.627-0.143,1.309-0.386,2.04-0.73v3.082
				c-0.667,0.344-1.356,0.581-2.065,0.713C160.521,90.932,159.674,90.998,158.688,90.998L158.688,90.998z M158.436,81.05
				c-0.5,0-0.918,0.159-1.256,0.477c-0.339,0.319-0.535,0.818-0.593,1.497h3.657c-0.016-0.599-0.184-1.078-0.506-1.436
				C159.414,81.229,158.98,81.05,158.436,81.05z M174.699,86.961c0,1.331-0.45,2.336-1.35,3.016c-0.9,0.68-2.191,1.021-3.875,1.021
				c-0.914,0-1.709-0.049-2.385-0.148s-1.361-0.28-2.066-0.543v-3.433c0.66,0.293,1.384,0.534,2.172,0.724
				c0.787,0.19,1.488,0.285,2.104,0.285c0.926,0,1.385-0.211,1.385-0.635c0-0.22-0.129-0.416-0.389-0.587
				c-0.256-0.172-1.007-0.506-2.247-1.004c-1.132-0.468-1.923-1-2.373-1.596c-0.448-0.595-0.676-1.35-0.676-2.264
				c0-1.155,0.44-2.055,1.329-2.698c0.884-0.644,2.137-0.966,3.754-0.966c0.813,0,1.577,0.09,2.292,0.269
				c0.714,0.179,1.456,0.44,2.228,0.784l-1.154,2.764c-0.566-0.255-1.165-0.473-1.797-0.652c-0.629-0.179-1.146-0.269-1.545-0.269
				c-0.695,0-1.043,0.172-1.043,0.515c0,0.212,0.121,0.393,0.361,0.543c0.242,0.15,0.945,0.455,2.106,0.916
				c0.86,0.359,1.507,0.71,1.932,1.053c0.427,0.344,0.736,0.748,0.938,1.212C174.6,85.732,174.699,86.296,174.699,86.961z
				 M181.766,87.609c0.572,0,1.258-0.143,2.055-0.428v3.126c-0.57,0.248-1.116,0.426-1.639,0.532
				c-0.518,0.106-1.125,0.159-1.822,0.159c-1.43,0-2.461-0.353-3.09-1.058c-0.633-0.706-0.949-1.79-0.949-3.252v-5.122h-1.487
				v-1.744l1.896-1.349l1.1-2.61h2.785v2.489h3.025v3.214h-3.025v4.837C180.609,87.207,180.995,87.609,181.766,87.609z"/>
		</g>
		<g>
			<path fill="#4E4E4E" d="M55.729,81.766h6.921v8.643c-1.88,0.644-3.945,0.966-6.197,0.966c-2.472,0-4.383-0.717-5.731-2.151
				c-1.349-1.433-2.024-3.477-2.024-6.131c0-2.589,0.739-4.603,2.216-6.044c1.478-1.44,3.547-2.161,6.209-2.161
				c1.009,0,1.961,0.095,2.857,0.285c0.895,0.19,1.676,0.432,2.342,0.724l-1.371,3.4c-1.155-0.57-2.424-0.854-3.806-0.854
				c-1.265,0-2.243,0.411-2.934,1.234c-0.691,0.822-1.037,1.998-1.037,3.527c0,1.499,0.313,2.641,0.938,3.428
				c0.625,0.786,1.526,1.179,2.704,1.179c0.644,0,1.236-0.062,1.777-0.187v-2.512H55.73L55.729,81.766L55.729,81.766z
				 M78.184,82.797c0,2.677-0.737,4.739-2.21,6.188c-1.474,1.447-3.545,2.172-6.215,2.172h-5.188V75.118h5.551
				c2.574,0,4.561,0.658,5.961,1.975C77.484,78.41,78.184,80.311,78.184,82.797z M73.687,82.951c0-1.47-0.291-2.56-0.872-3.268
				c-0.581-0.71-1.464-1.065-2.649-1.065h-1.262v8.984h0.965c1.317,0,2.281-0.382,2.896-1.146
				C73.38,85.692,73.687,84.523,73.687,82.951L73.687,82.951z M86.15,81.766h6.92v8.643c-1.879,0.644-3.944,0.966-6.196,0.966
				c-2.472,0-4.383-0.717-5.731-2.151c-1.349-1.433-2.024-3.477-2.024-6.131c0-2.589,0.739-4.603,2.216-6.044
				c1.478-1.44,3.547-2.161,6.209-2.161c1.009,0,1.961,0.095,2.857,0.285c0.895,0.19,1.676,0.432,2.342,0.724l-1.371,3.4
				c-1.155-0.57-2.424-0.854-3.806-0.854c-1.265,0-2.243,0.411-2.934,1.234c-0.691,0.822-1.037,1.998-1.037,3.527
				c0,1.499,0.313,2.641,0.938,3.428c0.625,0.786,1.526,1.179,2.704,1.179c0.644,0,1.236-0.062,1.777-0.187v-2.512H86.15V81.766
				L86.15,81.766z"/>
		</g>
		<g>
			<path fill="#4E4E4E" stroke="#4E4E4E" stroke-width="0.2167" stroke-miterlimit="10" d="M49.66,111.311v-1.152l1.475-1.436
				c3.549-3.377,5.152-5.174,5.174-7.27c0-1.41-0.685-2.715-2.758-2.715c-1.261,0-2.309,0.642-2.951,1.176l-0.598-1.326
				c0.961-0.813,2.331-1.411,3.934-1.411c2.994,0,4.255,2.054,4.255,4.042c0,2.565-1.859,4.639-4.79,7.463l-1.111,1.025v0.043h6.243
				v1.561H49.66z"/>
			<path fill="#4E4E4E" stroke="#4E4E4E" stroke-width="0.2167" stroke-miterlimit="10" d="M68.766,104.213
				c0,4.725-1.752,7.332-4.832,7.332c-2.715,0-4.554-2.543-4.597-7.141c0-4.661,2.01-7.229,4.832-7.229
				C67.099,97.177,68.766,99.786,68.766,104.213z M61.219,104.426c0,3.613,1.111,5.666,2.822,5.666c1.924,0,2.844-2.244,2.844-5.794
				c0-3.421-0.876-5.666-2.822-5.666C62.417,98.632,61.219,100.643,61.219,104.426z"/>
			<path fill="#4E4E4E" stroke="#4E4E4E" stroke-width="0.2167" stroke-miterlimit="10" d="M73.104,99.166h-0.043l-2.415,1.305
				l-0.364-1.434l3.036-1.624h1.604v13.897h-1.817L73.104,99.166L73.104,99.166z"/>
			<path fill="#4E4E4E" stroke="#4E4E4E" stroke-width="0.2167" stroke-miterlimit="10" d="M85.821,98.994h-5.302l-0.535,3.572
				c0.321-0.043,0.621-0.086,1.134-0.086c1.069,0,2.139,0.232,2.994,0.748c1.089,0.619,1.989,1.814,1.989,3.568
				c0,2.717-2.16,4.746-5.175,4.746c-1.518,0-2.801-0.427-3.464-0.854l0.47-1.434c0.578,0.344,1.71,0.771,2.972,0.771
				c1.775,0,3.293-1.154,3.293-3.016c-0.021-1.797-1.219-3.078-3.999-3.078c-0.79,0-1.411,0.086-1.924,0.148l0.897-6.671h6.65
				V98.994z"/>
			<path fill="#4E4E4E" stroke="#4E4E4E" stroke-width="0.2167" stroke-miterlimit="10" d="M95.396,111.311L90.693,96.9h2.01
				l2.244,7.098c0.619,1.945,1.154,3.699,1.541,5.389h0.041c0.406-1.668,1.006-3.484,1.646-5.367l2.438-7.119h1.988l-5.151,14.41
				H95.396z"/>
			<path fill="#4E4E4E" stroke="#4E4E4E" stroke-width="0.2167" stroke-miterlimit="10" d="M105.854,98.055
				c0.021,0.641-0.448,1.154-1.198,1.154c-0.661,0-1.132-0.514-1.132-1.154c0-0.662,0.49-1.176,1.177-1.176
				C105.404,96.879,105.854,97.393,105.854,98.055z M103.76,111.311v-10.35h1.881v10.35H103.76z"/>
			<path fill="#4E4E4E" stroke="#4E4E4E" stroke-width="0.2167" stroke-miterlimit="10" d="M109.811,106.479
				c0.043,2.545,1.668,3.592,3.549,3.592c1.349,0,2.16-0.232,2.865-0.533l0.319,1.347c-0.662,0.302-1.794,0.644-3.44,0.644
				c-3.188,0-5.09-2.094-5.09-5.217c0-3.121,1.84-5.58,4.854-5.58c3.376,0,4.274,2.973,4.274,4.875c0,0.385-0.043,0.685-0.063,0.877
				h-7.269V106.479L109.811,106.479z M115.325,105.131c0.022-1.197-0.491-3.057-2.608-3.057c-1.9,0-2.734,1.754-2.886,3.057H115.325
				z"/>
			<path fill="#4E4E4E" stroke="#4E4E4E" stroke-width="0.2167" stroke-miterlimit="10" d="M121.741,97.99v2.971h2.694v1.434h-2.694
				v5.582c0,1.281,0.362,2.008,1.409,2.008c0.492,0,0.854-0.063,1.092-0.129l0.086,1.412c-0.363,0.15-0.939,0.256-1.669,0.256
				c-0.876,0-1.581-0.274-2.03-0.789c-0.533-0.558-0.727-1.477-0.727-2.693v-5.646h-1.604v-1.434h1.604v-2.479L121.741,97.99z"/>
			<path fill="#4E4E4E" stroke="#4E4E4E" stroke-width="0.2167" stroke-miterlimit="10" d="M126.553,103.764
				c0-1.07-0.022-1.945-0.087-2.803h1.667l0.108,1.711h0.043c0.512-0.982,1.71-1.945,3.421-1.945c1.432,0,3.656,0.855,3.656,4.404
				v6.18h-1.883v-5.965c0-1.668-0.619-3.059-2.395-3.059c-1.241,0-2.204,0.877-2.523,1.926c-0.086,0.234-0.129,0.557-0.129,0.876
				v6.222h-1.88L126.553,103.764L126.553,103.764z"/>
			<path fill="#4E4E4E" stroke="#4E4E4E" stroke-width="0.2167" stroke-miterlimit="10" d="M144.148,111.311L144,110.006h-0.064
				c-0.576,0.813-1.688,1.539-3.164,1.539c-2.097,0-3.164-1.475-3.164-2.972c0-2.501,2.226-3.87,6.223-3.849v-0.215
				c0-0.854-0.232-2.395-2.352-2.395c-0.963,0-1.969,0.299-2.693,0.77l-0.43-1.238c0.854-0.559,2.096-0.92,3.4-0.92
				c3.163,0,3.934,2.158,3.934,4.231v3.87c0,0.896,0.043,1.773,0.17,2.479h-1.711V111.311L144.148,111.311z M143.872,106.029
				c-2.054-0.043-4.383,0.32-4.383,2.33c0,1.219,0.812,1.797,1.771,1.797c1.349,0,2.203-0.855,2.503-1.732
				c0.063-0.191,0.106-0.406,0.106-0.598L143.872,106.029L143.872,106.029z"/>
			<path fill="#4E4E4E" stroke="#4E4E4E" stroke-width="0.2167" stroke-miterlimit="10" d="M148.729,103.764
				c0-1.07-0.021-1.945-0.088-2.803h1.646l0.086,1.668h0.064c0.576-0.982,1.539-1.902,3.248-1.902c1.412,0,2.48,0.855,2.932,2.074
				h0.043c0.32-0.576,0.729-1.027,1.152-1.348c0.619-0.471,1.308-0.727,2.289-0.727c1.367,0,3.398,0.896,3.398,4.488v6.096h-1.839
				v-5.858c0-1.989-0.728-3.187-2.246-3.187c-1.067,0-1.901,0.793-2.224,1.711c-0.086,0.256-0.148,0.599-0.148,0.939v6.395h-1.838
				v-6.201c0-1.646-0.729-2.844-2.16-2.844c-1.176,0-2.031,0.939-2.331,1.883c-0.108,0.275-0.149,0.6-0.149,0.918v6.244h-1.836
				V103.764L148.729,103.764z"/>
		</g>
	</g>
	<g display="inline">
		<g>
			<path fill="#E6E6E5" d="M116.07,145.037c0,2.678-0.731,4.738-2.194,6.186c-1.461,1.447-3.517,2.174-6.165,2.174h-5.148v-16.035
				h5.508c2.556,0,4.525,0.658,5.916,1.977C115.374,140.65,116.07,142.553,116.07,145.037z M111.607,145.191
				c0-1.469-0.289-2.561-0.865-3.27c-0.577-0.709-1.452-1.063-2.628-1.063h-1.253v8.98h0.959c1.307,0,2.265-0.383,2.875-1.146
				C111.302,147.932,111.607,146.764,111.607,145.191z M123.288,153.615c-2.054,0-3.647-0.551-4.785-1.65
				c-1.135-1.101-1.703-2.668-1.703-4.701c0-2.098,0.526-3.709,1.578-4.83s2.554-1.684,4.506-1.684c1.857,0,3.292,0.486,4.306,1.465
				c1.015,0.977,1.52,2.381,1.52,4.217v1.908H121.1c0.029,0.694,0.282,1.239,0.756,1.633c0.479,0.396,1.123,0.594,1.943,0.594
				c0.747,0,1.436-0.07,2.064-0.213c0.626-0.145,1.307-0.387,2.039-0.729v3.082c-0.666,0.345-1.356,0.581-2.066,0.714
				C125.123,153.549,124.275,153.615,123.288,153.615z M123.037,143.668c-0.5,0-0.919,0.158-1.256,0.477
				c-0.34,0.318-0.536,0.818-0.594,1.496h3.657c-0.017-0.598-0.185-1.076-0.507-1.436S123.581,143.668,123.037,143.668z
				 M133.009,153.396l-4.702-12.429h4.44l2.091,7.351l0.042,0.187l0.065,0.313l0.061,0.385l0.027,0.378h0.074
				c0-0.38,0.064-0.793,0.197-1.239l2.188-7.371h4.43l-4.703,12.428h-4.21V153.396z M146.538,153.396h-4.233v-16.035h9.404v3.478
				h-5.171v3.062h4.769v3.478h-4.769V153.396z M158.688,153.615c-2.055,0-3.646-0.551-4.785-1.65
				c-1.135-1.101-1.701-2.668-1.701-4.701c0-2.098,0.523-3.709,1.576-4.83c1.054-1.121,2.556-1.684,4.508-1.684
				c1.855,0,3.292,0.486,4.305,1.465c1.016,0.977,1.52,2.381,1.52,4.217v1.908H156.5c0.029,0.694,0.281,1.239,0.756,1.633
				c0.477,0.396,1.122,0.594,1.943,0.594c0.746,0,1.436-0.07,2.063-0.213c0.627-0.145,1.309-0.387,2.04-0.729v3.082
				c-0.667,0.345-1.356,0.581-2.065,0.714C160.521,153.549,159.674,153.615,158.688,153.615L158.688,153.615z M158.436,143.668
				c-0.5,0-0.918,0.158-1.256,0.477c-0.339,0.318-0.535,0.818-0.593,1.496h3.657c-0.016-0.598-0.184-1.076-0.506-1.436
				C159.414,143.846,158.98,143.668,158.436,143.668z M174.699,149.578c0,1.331-0.45,2.336-1.35,3.016
				c-0.9,0.682-2.191,1.021-3.875,1.021c-0.914,0-1.709-0.049-2.385-0.148c-0.676-0.099-1.361-0.279-2.066-0.543v-3.433
				c0.66,0.293,1.384,0.534,2.172,0.724c0.787,0.19,1.488,0.285,2.104,0.285c0.926,0,1.385-0.211,1.385-0.635
				c0-0.221-0.129-0.416-0.389-0.588c-0.256-0.172-1.007-0.506-2.247-1.004c-1.132-0.467-1.923-1-2.373-1.598
				c-0.448-0.594-0.676-1.35-0.676-2.264c0-1.154,0.44-2.057,1.329-2.697c0.884-0.646,2.137-0.967,3.754-0.967
				c0.813,0,1.577,0.09,2.292,0.271c0.714,0.179,1.456,0.438,2.228,0.782l-1.154,2.765c-0.566-0.254-1.165-0.475-1.797-0.651
				c-0.629-0.179-1.146-0.269-1.545-0.269c-0.695,0-1.043,0.172-1.043,0.515c0,0.212,0.121,0.394,0.361,0.543
				c0.242,0.149,0.945,0.455,2.106,0.916c0.86,0.358,1.507,0.71,1.932,1.054c0.427,0.344,0.736,0.748,0.938,1.211
				C174.6,148.35,174.699,148.913,174.699,149.578z M181.766,150.227c0.572,0,1.258-0.143,2.055-0.428v3.125
				c-0.57,0.248-1.116,0.428-1.639,0.532c-0.518,0.106-1.125,0.159-1.822,0.159c-1.43,0-2.461-0.354-3.09-1.059
				c-0.633-0.705-0.949-1.789-0.949-3.252v-5.121h-1.487v-1.744l1.896-1.352l1.1-2.607h2.785v2.486h3.025v3.217h-3.025v4.836
				C180.609,149.824,180.995,150.227,181.766,150.227z"/>
		</g>
		<g>
			<path fill="#E6E6E5" d="M55.729,144.383h6.921v8.645c-1.88,0.645-3.945,0.967-6.197,0.967c-2.472,0-4.383-0.719-5.731-2.15
				c-1.349-1.434-2.024-3.478-2.024-6.131c0-2.59,0.739-4.604,2.216-6.045c1.478-1.438,3.547-2.16,6.209-2.16
				c1.009,0,1.961,0.096,2.857,0.284c0.895,0.188,1.676,0.435,2.342,0.726l-1.371,3.398c-1.155-0.57-2.424-0.854-3.806-0.854
				c-1.265,0-2.243,0.412-2.934,1.232c-0.691,0.822-1.037,1.998-1.037,3.525c0,1.5,0.313,2.643,0.938,3.43
				c0.625,0.786,1.526,1.18,2.704,1.18c0.644,0,1.236-0.063,1.777-0.188v-2.514H55.73L55.729,144.383L55.729,144.383z
				 M78.184,145.414c0,2.678-0.737,4.738-2.21,6.188c-1.474,1.447-3.545,2.172-6.215,2.172h-5.188v-16.037h5.551
				c2.574,0,4.561,0.658,5.961,1.977C77.484,141.027,78.184,142.928,78.184,145.414z M73.687,145.568
				c0-1.471-0.291-2.563-0.872-3.27c-0.581-0.711-1.464-1.064-2.649-1.064h-1.262v8.982h0.965c1.317,0,2.281-0.381,2.896-1.146
				C73.38,148.311,73.687,147.141,73.687,145.568L73.687,145.568z M86.15,144.383h6.92v8.645c-1.879,0.645-3.944,0.967-6.196,0.967
				c-2.472,0-4.383-0.719-5.731-2.15c-1.349-1.434-2.024-3.478-2.024-6.131c0-2.59,0.739-4.604,2.216-6.045
				c1.478-1.438,3.547-2.16,6.209-2.16c1.009,0,1.961,0.096,2.857,0.284c0.895,0.188,1.676,0.435,2.342,0.726l-1.371,3.398
				c-1.155-0.57-2.424-0.854-3.806-0.854c-1.265,0-2.243,0.412-2.934,1.232c-0.691,0.822-1.037,1.998-1.037,3.525
				c0,1.5,0.313,2.643,0.938,3.43c0.625,0.786,1.526,1.18,2.704,1.18c0.644,0,1.236-0.063,1.777-0.188v-2.514H86.15V144.383
				L86.15,144.383z"/>
		</g>
		<g>
			<path fill="#E6E6E5" d="M49.66,173.928v-1.154l1.475-1.434c3.549-3.378,5.152-5.174,5.174-7.27c0-1.41-0.685-2.715-2.758-2.715
				c-1.261,0-2.309,0.642-2.951,1.176l-0.598-1.326c0.961-0.813,2.331-1.411,3.934-1.411c2.994,0,4.255,2.054,4.255,4.042
				c0,2.564-1.859,4.639-4.79,7.462l-1.111,1.026v0.043h6.243v1.561H49.66z"/>
			<path fill="#E6E6E5" d="M68.766,166.83c0,4.725-1.752,7.332-4.832,7.332c-2.715,0-4.554-2.543-4.597-7.141
				c0-4.662,2.01-7.229,4.832-7.229C67.099,159.794,68.766,162.402,68.766,166.83z M61.219,167.043c0,3.613,1.111,5.666,2.822,5.666
				c1.924,0,2.844-2.245,2.844-5.794c0-3.421-0.876-5.666-2.822-5.666C62.417,161.249,61.219,163.259,61.219,167.043z"/>
			<path fill="#E6E6E5" d="M73.104,161.783h-0.043l-2.415,1.305l-0.364-1.434l3.036-1.625h1.604v13.896h-1.817L73.104,161.783
				L73.104,161.783z"/>
			<path fill="#E6E6E5" d="M85.821,161.611h-5.302l-0.535,3.572c0.321-0.043,0.621-0.086,1.134-0.086
				c1.069,0,2.139,0.232,2.994,0.748c1.089,0.618,1.989,1.814,1.989,3.568c0,2.716-2.16,4.746-5.175,4.746
				c-1.518,0-2.801-0.428-3.464-0.854l0.47-1.434c0.578,0.342,1.71,0.771,2.972,0.771c1.775,0,3.293-1.154,3.293-3.017
				c-0.021-1.796-1.219-3.079-3.999-3.079c-0.79,0-1.411,0.087-1.924,0.15l0.897-6.672h6.65V161.611z"/>
			<path fill="#E6E6E5" d="M95.396,173.928l-4.705-14.41h2.01l2.243,7.1c0.619,1.943,1.154,3.697,1.541,5.389h0.041
				c0.406-1.668,1.007-3.484,1.646-5.365l2.438-7.119h1.988l-5.15,14.41h-2.055v-0.004H95.396z"/>
			<path fill="#E6E6E5" d="M105.854,160.671c0.021,0.642-0.448,1.155-1.198,1.155c-0.661,0-1.132-0.514-1.132-1.155
				c0-0.661,0.49-1.175,1.177-1.175C105.404,159.496,105.854,160.01,105.854,160.671z M103.76,173.928v-10.35h1.881v10.35H103.76z"
				/>
			<path fill="#E6E6E5" d="M109.811,169.096c0.043,2.545,1.668,3.592,3.549,3.592c1.349,0,2.16-0.232,2.865-0.535l0.319,1.349
				c-0.662,0.301-1.794,0.644-3.44,0.644c-3.188,0-5.09-2.096-5.09-5.219c0-3.119,1.84-5.58,4.854-5.58
				c3.376,0,4.274,2.975,4.274,4.877c0,0.385-0.043,0.684-0.063,0.877h-7.269V169.096L109.811,169.096z M115.325,167.748
				c0.022-1.197-0.491-3.057-2.608-3.057c-1.9,0-2.734,1.754-2.886,3.057H115.325z"/>
			<path fill="#E6E6E5" d="M121.741,160.607v2.971h2.694v1.434h-2.694v5.581c0,1.282,0.362,2.009,1.409,2.009
				c0.492,0,0.854-0.063,1.092-0.129l0.086,1.412c-0.363,0.15-0.939,0.256-1.669,0.256c-0.876,0-1.581-0.274-2.03-0.789
				c-0.533-0.558-0.727-1.477-0.727-2.693v-5.646h-1.604v-1.434h1.604V161.1L121.741,160.607z"/>
			<path fill="#E6E6E5" d="M126.553,166.38c0-1.069-0.022-1.944-0.087-2.802h1.667l0.108,1.711h0.043
				c0.512-0.982,1.71-1.945,3.421-1.945c1.432,0,3.656,0.855,3.656,4.404v6.18h-1.883v-5.966c0-1.667-0.619-3.058-2.395-3.058
				c-1.241,0-2.204,0.877-2.523,1.926c-0.086,0.234-0.129,0.556-0.129,0.876v6.222h-1.88L126.553,166.38L126.553,166.38z"/>
			<path fill="#E6E6E5" d="M144.148,173.928L144,172.623h-0.064c-0.576,0.813-1.688,1.539-3.164,1.539
				c-2.097,0-3.164-1.475-3.164-2.973c0-2.5,2.226-3.869,6.223-3.85v-0.213c0-0.854-0.232-2.396-2.352-2.396
				c-0.963,0-1.969,0.301-2.693,0.771l-0.43-1.238c0.854-0.559,2.096-0.922,3.4-0.922c3.163,0,3.934,2.16,3.934,4.233v3.868
				c0,0.898,0.043,1.775,0.17,2.48h-1.711V173.928L144.148,173.928z M143.872,168.646c-2.054-0.043-4.383,0.318-4.383,2.33
				c0,1.219,0.812,1.797,1.771,1.797c1.349,0,2.203-0.855,2.503-1.732c0.063-0.191,0.106-0.406,0.106-0.598L143.872,168.646
				L143.872,168.646z"/>
			<path fill="#E6E6E5" d="M148.729,166.38c0-1.069-0.021-1.944-0.088-2.802h1.646l0.086,1.668h0.064
				c0.576-0.982,1.539-1.902,3.248-1.902c1.412,0,2.48,0.855,2.932,2.074h0.043c0.32-0.577,0.729-1.027,1.152-1.348
				c0.619-0.471,1.308-0.729,2.289-0.729c1.367,0,3.398,0.898,3.398,4.49v6.094h-1.839v-5.857c0-1.988-0.728-3.187-2.246-3.187
				c-1.067,0-1.901,0.792-2.224,1.71c-0.086,0.258-0.148,0.6-0.148,0.941v6.393h-1.838v-6.199c0-1.646-0.729-2.845-2.16-2.845
				c-1.176,0-2.031,0.94-2.331,1.884c-0.108,0.275-0.149,0.6-0.149,0.918v6.242h-1.836V166.38L148.729,166.38z"/>
		</g>
	</g>
</g>
<g id="Layer_2">
	<g>
		
			<image overflow="visible" opacity="0.75" width="188" height="52" xlink:href="6A3F5A62.png"  transform="matrix(1 0 0 1 -0.9922 5.5078)">
		</image>
		<g>
			<g>
				<g>
					<path fill="#10FF31" d="M46.064,41.721c0.914,0,1.648,0.266,2.347,0.866v-0.7h2.06v8.317h-2.06v-0.697
						c-0.698,0.614-1.433,0.863-2.347,0.863c-2.429,0-4.142-1.896-4.142-4.325S43.635,41.721,46.064,41.721z M48.411,47.344V44.75
						c-0.616-0.815-1.433-1.081-2.081-1.081c-1.281,0-2.278,1.015-2.278,2.376c0,1.365,0.997,2.38,2.278,2.38
						C46.979,48.425,47.795,48.175,48.411,47.344z"/>
					<path fill="#10FF31" d="M52.898,41.886h2.062v0.682c0.533-0.533,1.248-0.848,2.147-0.848c2.095,0,3.476,1.681,3.476,3.81v4.673
						h-2.063v-4.723c0-0.999-0.783-1.813-1.78-1.813c-0.981,0-1.78,0.83-1.78,1.813v4.723h-2.062V41.886z"/>
					<path fill="#10FF31" d="M66.592,41.721c0.914,0,1.646,0.266,2.345,0.866v-3.194H71v10.811h-2.063v-0.697
						c-0.699,0.614-1.431,0.863-2.345,0.863c-2.429,0-4.143-1.896-4.143-4.325S64.163,41.721,66.592,41.721z M68.937,47.344V44.75
						c-0.615-0.815-1.431-1.081-2.081-1.081c-1.279,0-2.278,1.015-2.278,2.376c0,1.365,0.999,2.38,2.278,2.38
						C67.506,48.425,68.322,48.175,68.937,47.344z"/>
					<path fill="#10FF31" d="M73.426,41.886h2.062v0.849c0.466-0.632,1.165-1.015,2.147-1.015h0.232v2.097H77.27
						c-1.166,0-1.782,0.781-1.782,1.796v4.59h-2.062V41.886z"/>
					<path fill="#10FF31" d="M78.97,46.045c0-2.41,1.96-4.324,4.373-4.324c2.412,0,4.375,1.915,4.375,4.324
						c0,2.48-1.979,4.325-4.375,4.325C80.949,50.37,78.97,48.525,78.97,46.045z M85.59,46.045c0-1.38-1.032-2.376-2.247-2.376
						c-1.229,0-2.244,0.996-2.244,2.376c0,1.397,0.997,2.38,2.244,2.38C84.591,48.425,85.59,47.442,85.59,46.045z"/>
					<path fill="#10FF31" d="M89.375,39.675c0-0.699,0.582-1.282,1.28-1.282c0.699,0,1.281,0.583,1.281,1.282
						c0,0.697-0.582,1.28-1.281,1.28C89.957,40.956,89.375,40.373,89.375,39.675z M89.626,41.886h2.062v8.317h-2.062V41.886z"/>
					<path fill="#10FF31" d="M97.728,41.721c0.915,0,1.647,0.266,2.346,0.866v-3.194h2.061v10.811h-2.061v-0.697
						c-0.698,0.614-1.431,0.863-2.346,0.863c-2.429,0-4.143-1.896-4.143-4.325S95.299,41.721,97.728,41.721z M100.073,47.344V44.75
						c-0.617-0.815-1.431-1.081-2.08-1.081c-1.28,0-2.278,1.015-2.278,2.376c0,1.365,0.998,2.38,2.278,2.38
						C98.643,48.425,99.456,48.175,100.073,47.344z"/>
					<path fill="#10FF31" d="M112.48,41.721c0.912,0,1.646,0.266,2.346,0.866v-0.7h2.061v8.317h-2.061v-0.697
						c-0.699,0.614-1.434,0.863-2.346,0.863c-2.428,0-4.143-1.896-4.143-4.325S110.053,41.721,112.48,41.721z M114.826,47.344V44.75
						c-0.616-0.815-1.434-1.081-2.079-1.081c-1.281,0-2.277,1.015-2.277,2.376c0,1.365,0.996,2.38,2.277,2.38
						C113.393,48.425,114.21,48.175,114.826,47.344z"/>
					<path fill="#10FF31" d="M123.207,48.425c0.816,0,1.515-0.483,1.929-1.113l0.2-0.3l1.748,1.03l-0.314,0.483
						c-0.732,1.115-2.048,1.845-3.563,1.845c-2.378,0-4.372-1.91-4.372-4.325c0-2.41,1.994-4.324,4.372-4.324
						c1.515,0,2.83,0.732,3.563,1.846l0.314,0.481l-1.748,1.034l-0.2-0.299c-0.414-0.618-1.112-1.133-1.929-1.115
						c-1.232,0-2.244,0.996-2.244,2.376C120.963,47.426,121.975,48.425,123.207,48.425z"/>
					<path fill="#10FF31" d="M132.438,41.721c0.914,0,1.647,0.266,2.346,0.866v-0.7h2.062v8.317h-2.062v-0.697
						c-0.698,0.614-1.432,0.863-2.346,0.863c-2.428,0-4.142-1.896-4.142-4.325S130.011,41.721,132.438,41.721z M134.784,47.344
						V44.75c-0.617-0.815-1.432-1.081-2.079-1.081c-1.282,0-2.28,1.015-2.28,2.376c0,1.365,0.998,2.38,2.28,2.38
						C133.353,48.425,134.167,48.175,134.784,47.344z"/>
					<path fill="#10FF31" d="M142.97,41.721c0.915,0,1.647,0.266,2.345,0.866v-3.194h2.063v10.811h-2.063v-0.697
						c-0.697,0.614-1.43,0.863-2.345,0.863c-2.427,0-4.144-1.896-4.144-4.325S140.543,41.721,142.97,41.721z M145.314,47.344V44.75
						c-0.614-0.815-1.43-1.081-2.076-1.081c-1.283,0-2.279,1.015-2.279,2.376c0,1.365,0.996,2.38,2.279,2.38
						C143.885,48.425,144.7,48.175,145.314,47.344z"/>
					<path fill="#10FF31" d="M149.33,46.013c0-2.428,1.999-4.292,4.343-4.292c2.445,0,4.375,1.88,4.375,4.292v0.665h-6.504
						c0.282,0.998,1.148,1.731,2.181,1.731c0.779,0,1.495-0.399,1.928-0.998l1.815,0.881c-0.748,1.28-2.131,2.078-3.795,2.078
						C151.345,50.37,149.33,48.492,149.33,46.013z M151.577,45.182h4.292c-0.282-1.017-1.116-1.631-2.145-1.631
						C152.725,43.551,151.877,44.182,151.577,45.182z"/>
					<path fill="#10FF31" d="M159.903,41.886h2.066v0.768c0.516-0.583,1.246-0.933,2.13-0.933c1.08,0,1.896,0.548,2.394,1.331
						c0.55-0.832,1.415-1.331,2.479-1.331c2.146,0,3.243,1.696,3.243,3.494v4.989h-2.062v-4.856c0-0.998-0.632-1.679-1.529-1.679
						c-0.882,0-1.532,0.698-1.532,1.679v4.856h-2.062v-4.856c0-0.998-0.633-1.679-1.531-1.679c-0.882,0-1.529,0.698-1.529,1.679
						v4.856h-2.066V41.886z"/>
					<path fill="#10FF31" d="M174.284,50.619c0.533,0.333,0.966,0.401,1.198,0.401c0.518,0,0.85-0.268,0.98-0.583l0.05-0.116
						l-3.109-8.435h2.411l1.948,5.89l1.926-5.89h2.332l-3.044,8.317c-0.766,2.113-2.031,2.661-3.227,2.661
						c-0.898,0-1.713-0.231-2.331-0.648L174.284,50.619z"/>
				</g>
				<g>
					<radialGradient id="SVGID_13_" cx="53.0508" cy="23.1729" r="10.8803" gradientUnits="userSpaceOnUse">
						<stop  offset="0" style="stop-color:#626262"/>
						<stop  offset="1" style="stop-color:#474747"/>
					</radialGradient>
					<path fill="url(#SVGID_13_)" d="M64.196,12.565l-9.86,21.216h-2.542l-9.889-21.216h5.594l5.566,12.063l5.594-12.063H64.196z"/>
					<radialGradient id="SVGID_14_" cx="69.377" cy="23.187" r="7.7455" gradientUnits="userSpaceOnUse">
						<stop  offset="0" style="stop-color:#626262"/>
						<stop  offset="1" style="stop-color:#474747"/>
					</radialGradient>
					<path fill="url(#SVGID_14_)" d="M66.594,12.593h5.566v21.188h-5.566V12.593z"/>
					<radialGradient id="SVGID_15_" cx="83.0078" cy="23.187" r="8.8193" gradientUnits="userSpaceOnUse">
						<stop  offset="0" style="stop-color:#626262"/>
						<stop  offset="1" style="stop-color:#474747"/>
					</radialGradient>
					<path fill="url(#SVGID_15_)" d="M76.425,12.593H89.59v4.604h-7.599v3.447h6.724v4.69h-6.724v3.897h7.599v4.549H76.425V12.593z"
						/>
					<radialGradient id="SVGID_16_" cx="101.4688" cy="23.1729" r="9.5452" gradientUnits="userSpaceOnUse">
						<stop  offset="0" style="stop-color:#626262"/>
						<stop  offset="1" style="stop-color:#474747"/>
					</radialGradient>
					<path fill="url(#SVGID_16_)" d="M93.12,12.565h16.696v5.537h-5.622v15.679h-5.565V18.102H93.12V12.565z"/>
					<radialGradient id="SVGID_17_" cx="122.584" cy="23.187" r="9.796" gradientUnits="userSpaceOnUse">
						<stop  offset="0" style="stop-color:#626262"/>
						<stop  offset="1" style="stop-color:#474747"/>
					</radialGradient>
					<path fill="url(#SVGID_17_)" d="M129.224,33.781l-10.002-10.03v10.03h-5.565V12.593h2.261l10.029,10.002V12.593h5.564v21.188
						H129.224z"/>
					<radialGradient id="SVGID_18_" cx="145.5508" cy="23.187" r="10.8949" gradientUnits="userSpaceOnUse">
						<stop  offset="0" style="stop-color:#626262"/>
						<stop  offset="1" style="stop-color:#474747"/>
					</radialGradient>
					<path fill="url(#SVGID_18_)" d="M134.362,33.781l9.889-21.188h2.515l9.973,21.188h-5.565l-1.3-2.769H141.2l-1.272,2.769
						H134.362z M143.375,26.323h4.321l-2.146-4.662L143.375,26.323z"/>
					<radialGradient id="SVGID_19_" cx="170.7051" cy="23.187" r="10.8734" gradientUnits="userSpaceOnUse">
						<stop  offset="0" style="stop-color:#626262"/>
						<stop  offset="1" style="stop-color:#474747"/>
					</radialGradient>
					<path fill="url(#SVGID_19_)" d="M170.72,20.446l8.617-7.854h2.514v21.188h-5.594V22.905l-5.537,5.057l-5.564-5.029v10.849
						h-5.596V12.593h2.516L170.72,20.446z"/>
				</g>
				<g>
					<g>
						<g>
							<g>
								<path fill="#FFFFFF" d="M30.657,22.452L6.989,22.459l0.005,17.176c-0.002,1.564,1.264,2.825,2.823,2.825l1.923,0.002
									l0.002,5.864c-0.002,1.46,1.187,2.645,2.644,2.645c1.464,0,2.649-1.185,2.649-2.647l-0.002-5.864h3.575v5.864
									c0,1.462,1.188,2.647,2.646,2.645c1.462,0.002,2.649-1.185,2.649-2.645V42.46l1.931-0.002
									c1.558,0.002,2.824-1.262,2.824-2.826V22.452z"/>
							</g>
						</g>
						<g>
							<path fill="#FFFFFF" d="M24.623,12.168l1.833-3.351c0.097-0.174,0.033-0.398-0.143-0.498c-0.179-0.096-0.4-0.028-0.495,0.146
								l-1.854,3.387c-1.561-0.692-3.305-1.083-5.153-1.083c-1.842-0.001-3.587,0.39-5.141,1.079l-1.855-3.378
								c-0.096-0.18-0.318-0.245-0.493-0.147c-0.18,0.098-0.245,0.32-0.146,0.494l1.837,3.35c-3.608,1.861-6.046,5.405-6.044,9.47
								h23.687C30.657,17.57,28.225,14.034,24.623,12.168z M13.471,17.433c-0.545,0-0.992-0.443-0.992-0.99
								c0-0.547,0.446-0.996,0.991-0.996c0.549,0,0.995,0.449,0.995,0.996C14.465,16.989,14.02,17.433,13.471,17.433z
								 M24.256,17.433c-0.548,0-0.995-0.443-0.995-0.995c0-0.545,0.447-0.991,0.995-0.995c0.544,0.003,0.991,0.45,0.991,0.995
								C25.248,16.989,24.802,17.433,24.256,17.433z"/>
						</g>
					</g>
					<g>
						<path fill="#FFFFFF" d="M36.316,36.121c0,1.31-1.059,2.367-2.364,2.367c-1.309,0-2.366-1.055-2.366-2.363l-0.002-2.113
							l-0.006-7.792c0-1.306,1.058-2.365,2.364-2.365c1.306,0,2.363,1.058,2.368,2.36l0.005,7.797L36.316,36.121z"/>
					</g>
					<g>
						<path fill="#FFFFFF" d="M6.147,36.121c0,1.31-1.059,2.367-2.361,2.367c-1.309,0-2.368-1.055-2.369-2.363l-0.001-2.113
							L1.41,26.219c0-1.306,1.057-2.365,2.363-2.365c1.307,0,2.364,1.058,2.368,2.36l0.005,7.797L6.147,36.121z"/>
					</g>
				</g>
				<g>
					<path fill="#10FF31" d="M18.127,27.441l-3.106,9.017H12.72l-3.068-9.017h2.188l1.88,6.275c0.101,0.341,0.162,0.639,0.183,0.9
						h0.038c0.029-0.282,0.094-0.59,0.194-0.926l1.867-6.249H18.127z"/>
					<path fill="#10FF31" d="M27.319,36.458h-2.049l-3.717-5.665c-0.216-0.331-0.369-0.581-0.452-0.749h-0.025
						c0.034,0.318,0.05,0.805,0.05,1.458v4.956h-1.917v-9.017h2.188l3.578,5.489c0.164,0.248,0.313,0.492,0.452,0.737h0.025
						c-0.034-0.21-0.05-0.623-0.05-1.238v-4.987h1.917V36.458z"/>
				</g>
			</g>
		</g>
	</g>
	<g>
		
			<image overflow="visible" opacity="0.75" width="188" height="51" xlink:href="6A3F5A66.png"  transform="matrix(1 0 0 1 -0.9922 68.5078)">
		</image>
		<g>
			<g>
				<g>
					<path fill="#10FF31" d="M46.064,104.256c0.914,0,1.648,0.266,2.347,0.865v-0.7h2.06v8.318h-2.06v-0.697
						c-0.698,0.613-1.433,0.862-2.347,0.862c-2.429,0-4.142-1.896-4.142-4.324S43.635,104.256,46.064,104.256z M48.411,109.879
						v-2.595c-0.616-0.815-1.433-1.081-2.081-1.081c-1.281,0-2.278,1.015-2.278,2.377c0,1.365,0.997,2.379,2.278,2.379
						C46.979,110.959,47.795,110.71,48.411,109.879z"/>
					<path fill="#10FF31" d="M52.898,104.421h2.062v0.683c0.533-0.533,1.248-0.848,2.147-0.848c2.095,0,3.476,1.68,3.476,3.81v4.674
						h-2.063v-4.724c0-0.998-0.783-1.813-1.78-1.813c-0.981,0-1.78,0.83-1.78,1.813v4.724h-2.062V104.421z"/>
					<path fill="#10FF31" d="M66.592,104.256c0.914,0,1.646,0.266,2.345,0.865v-3.193H71v10.812h-2.063v-0.697
						c-0.699,0.613-1.431,0.862-2.345,0.862c-2.429,0-4.143-1.896-4.143-4.324S64.163,104.256,66.592,104.256z M68.937,109.879
						v-2.595c-0.615-0.815-1.431-1.081-2.081-1.081c-1.279,0-2.278,1.015-2.278,2.377c0,1.365,0.999,2.379,2.278,2.379
						C67.506,110.959,68.322,110.71,68.937,109.879z"/>
					<path fill="#10FF31" d="M73.426,104.421h2.062v0.849c0.466-0.631,1.165-1.014,2.147-1.014h0.232v2.097H77.27
						c-1.166,0-1.782,0.781-1.782,1.797v4.59h-2.062V104.421z"/>
					<path fill="#10FF31" d="M78.97,108.58c0-2.41,1.96-4.324,4.373-4.324c2.412,0,4.375,1.914,4.375,4.324
						c0,2.479-1.979,4.324-4.375,4.324C80.949,112.904,78.97,111.06,78.97,108.58z M85.59,108.58c0-1.381-1.032-2.377-2.247-2.377
						c-1.229,0-2.244,0.996-2.244,2.377c0,1.396,0.997,2.379,2.244,2.379C84.591,110.959,85.59,109.977,85.59,108.58z"/>
					<path fill="#10FF31" d="M89.375,102.21c0-0.698,0.582-1.282,1.28-1.282c0.699,0,1.281,0.584,1.281,1.282
						c0,0.697-0.582,1.281-1.281,1.281C89.957,103.491,89.375,102.907,89.375,102.21z M89.626,104.421h2.062v8.318h-2.062V104.421z"
						/>
					<path fill="#10FF31" d="M97.728,104.256c0.915,0,1.647,0.266,2.346,0.865v-3.193h2.061v10.812h-2.061v-0.697
						c-0.698,0.613-1.431,0.862-2.346,0.862c-2.429,0-4.143-1.896-4.143-4.324S95.299,104.256,97.728,104.256z M100.073,109.879
						v-2.595c-0.617-0.815-1.431-1.081-2.08-1.081c-1.28,0-2.278,1.015-2.278,2.377c0,1.365,0.998,2.379,2.278,2.379
						C98.643,110.959,99.456,110.71,100.073,109.879z"/>
					<path fill="#10FF31" d="M112.48,104.256c0.912,0,1.646,0.266,2.346,0.865v-0.7h2.061v8.318h-2.061v-0.697
						c-0.699,0.613-1.434,0.862-2.346,0.862c-2.428,0-4.143-1.896-4.143-4.324S110.053,104.256,112.48,104.256z M114.826,109.879
						v-2.595c-0.616-0.815-1.434-1.081-2.079-1.081c-1.281,0-2.277,1.015-2.277,2.377c0,1.365,0.996,2.379,2.277,2.379
						C113.393,110.959,114.21,110.71,114.826,109.879z"/>
					<path fill="#10FF31" d="M123.207,110.959c0.816,0,1.515-0.481,1.929-1.113l0.2-0.3l1.748,1.03l-0.314,0.483
						c-0.732,1.114-2.048,1.845-3.563,1.845c-2.378,0-4.372-1.91-4.372-4.324c0-2.41,1.994-4.324,4.372-4.324
						c1.515,0,2.83,0.731,3.563,1.846l0.314,0.481l-1.748,1.034l-0.2-0.299c-0.414-0.619-1.112-1.133-1.929-1.115
						c-1.232,0-2.244,0.996-2.244,2.377S121.975,110.959,123.207,110.959z"/>
					<path fill="#10FF31" d="M132.438,104.256c0.914,0,1.647,0.266,2.346,0.865v-0.7h2.062v8.318h-2.062v-0.697
						c-0.698,0.613-1.432,0.862-2.346,0.862c-2.428,0-4.142-1.896-4.142-4.324S130.011,104.256,132.438,104.256z M134.784,109.879
						v-2.595c-0.617-0.815-1.432-1.081-2.079-1.081c-1.282,0-2.28,1.015-2.28,2.377c0,1.365,0.998,2.379,2.28,2.379
						C133.353,110.959,134.167,110.71,134.784,109.879z"/>
					<path fill="#10FF31" d="M142.97,104.256c0.915,0,1.647,0.266,2.345,0.865v-3.193h2.063v10.812h-2.063v-0.697
						c-0.697,0.613-1.43,0.862-2.345,0.862c-2.427,0-4.144-1.896-4.144-4.324S140.543,104.256,142.97,104.256z M145.314,109.879
						v-2.595c-0.614-0.815-1.43-1.081-2.076-1.081c-1.283,0-2.279,1.015-2.279,2.377c0,1.365,0.996,2.379,2.279,2.379
						C143.885,110.959,144.7,110.71,145.314,109.879z"/>
					<path fill="#10FF31" d="M149.33,108.548c0-2.429,1.999-4.292,4.343-4.292c2.445,0,4.375,1.88,4.375,4.292v0.664h-6.504
						c0.282,0.998,1.148,1.73,2.181,1.73c0.779,0,1.495-0.399,1.928-0.997l1.815,0.881c-0.748,1.279-2.131,2.078-3.795,2.078
						C151.345,112.904,149.33,111.026,149.33,108.548z M151.577,107.717h4.292c-0.282-1.018-1.116-1.631-2.145-1.631
						C152.725,106.086,151.877,106.717,151.577,107.717z"/>
					<path fill="#10FF31" d="M159.903,104.421h2.066v0.768c0.516-0.583,1.246-0.933,2.13-0.933c1.08,0,1.896,0.548,2.394,1.33
						c0.55-0.832,1.415-1.33,2.479-1.33c2.146,0,3.243,1.695,3.243,3.494v4.989h-2.062v-4.857c0-0.997-0.632-1.679-1.529-1.679
						c-0.882,0-1.532,0.697-1.532,1.679v4.857h-2.062v-4.857c0-0.997-0.633-1.679-1.531-1.679c-0.882,0-1.529,0.697-1.529,1.679
						v4.857h-2.066V104.421z"/>
					<path fill="#10FF31" d="M174.284,113.154c0.533,0.333,0.966,0.401,1.198,0.401c0.518,0,0.85-0.269,0.98-0.584l0.05-0.116
						l-3.109-8.435h2.411l1.948,5.89l1.926-5.89h2.332l-3.044,8.318c-0.766,2.112-2.031,2.661-3.227,2.661
						c-0.898,0-1.713-0.232-2.331-0.648L174.284,113.154z"/>
				</g>
				<g>
					<radialGradient id="SVGID_20_" cx="53.0508" cy="85.7075" r="10.88" gradientUnits="userSpaceOnUse">
						<stop  offset="0" style="stop-color:#626262"/>
						<stop  offset="1" style="stop-color:#474747"/>
					</radialGradient>
					<path fill="url(#SVGID_20_)" d="M64.196,75.1l-9.86,21.216h-2.542L41.905,75.1h5.594l5.566,12.063L58.659,75.1H64.196z"/>
					<radialGradient id="SVGID_21_" cx="69.377" cy="85.7217" r="7.7451" gradientUnits="userSpaceOnUse">
						<stop  offset="0" style="stop-color:#626262"/>
						<stop  offset="1" style="stop-color:#474747"/>
					</radialGradient>
					<path fill="url(#SVGID_21_)" d="M66.594,75.127h5.566v21.188h-5.566V75.127z"/>
					<radialGradient id="SVGID_22_" cx="83.0078" cy="85.7217" r="8.819" gradientUnits="userSpaceOnUse">
						<stop  offset="0" style="stop-color:#626262"/>
						<stop  offset="1" style="stop-color:#474747"/>
					</radialGradient>
					<path fill="url(#SVGID_22_)" d="M76.425,75.127H89.59v4.604h-7.599v3.447h6.724v4.691h-6.724v3.897h7.599v4.548H76.425V75.127z
						"/>
					<radialGradient id="SVGID_23_" cx="101.4688" cy="85.7075" r="9.5449" gradientUnits="userSpaceOnUse">
						<stop  offset="0" style="stop-color:#626262"/>
						<stop  offset="1" style="stop-color:#474747"/>
					</radialGradient>
					<path fill="url(#SVGID_23_)" d="M93.12,75.1h16.696v5.537h-5.622v15.679h-5.565V80.637H93.12V75.1z"/>
					<radialGradient id="SVGID_24_" cx="122.584" cy="85.7217" r="9.7958" gradientUnits="userSpaceOnUse">
						<stop  offset="0" style="stop-color:#626262"/>
						<stop  offset="1" style="stop-color:#474747"/>
					</radialGradient>
					<path fill="url(#SVGID_24_)" d="M129.224,96.315l-10.002-10.029v10.029h-5.565V75.127h2.261l10.029,10.002V75.127h5.564v21.188
						H129.224z"/>
					<radialGradient id="SVGID_25_" cx="145.5508" cy="85.7217" r="10.8947" gradientUnits="userSpaceOnUse">
						<stop  offset="0" style="stop-color:#626262"/>
						<stop  offset="1" style="stop-color:#474747"/>
					</radialGradient>
					<path fill="url(#SVGID_25_)" d="M134.362,96.315l9.889-21.188h2.515l9.973,21.188h-5.565l-1.3-2.768H141.2l-1.272,2.768
						H134.362z M143.375,88.857h4.321l-2.146-4.661L143.375,88.857z"/>
					<radialGradient id="SVGID_26_" cx="170.7051" cy="85.7217" r="10.8731" gradientUnits="userSpaceOnUse">
						<stop  offset="0" style="stop-color:#626262"/>
						<stop  offset="1" style="stop-color:#474747"/>
					</radialGradient>
					<path fill="url(#SVGID_26_)" d="M170.72,82.981l8.617-7.854h2.514v21.188h-5.594V85.439l-5.537,5.057l-5.564-5.029v10.848
						h-5.596V75.127h2.516L170.72,82.981z"/>
				</g>
				<g>
					<g>
						<g>
							<g>
								<path fill="#10FF31" d="M30.657,84.987L6.989,84.994l0.005,17.176c-0.002,1.564,1.264,2.825,2.823,2.825l1.923,0.002
									l0.002,5.864c-0.002,1.46,1.187,2.646,2.644,2.646c1.464,0,2.649-1.186,2.649-2.647l-0.002-5.864h3.575v5.864
									c0,1.462,1.188,2.647,2.646,2.645c1.462,0.003,2.649-1.185,2.649-2.645v-5.864l1.931-0.002
									c1.558,0.002,2.824-1.263,2.824-2.827V84.987z"/>
							</g>
						</g>
						<g>
							<path fill="#10FF31" d="M24.623,74.703l1.833-3.351c0.097-0.174,0.033-0.398-0.143-0.498c-0.179-0.096-0.4-0.028-0.495,0.146
								l-1.854,3.387c-1.561-0.693-3.305-1.084-5.153-1.083c-1.842-0.001-3.587,0.39-5.141,1.08l-1.855-3.379
								c-0.096-0.18-0.318-0.245-0.493-0.147c-0.18,0.098-0.245,0.32-0.146,0.494l1.837,3.35c-3.608,1.861-6.046,5.405-6.044,9.47
								h23.687C30.657,80.105,28.225,76.569,24.623,74.703z M13.471,79.968c-0.545,0-0.992-0.444-0.992-0.99
								c0-0.547,0.446-0.996,0.991-0.996c0.549,0,0.995,0.449,0.995,0.996C14.465,79.524,14.02,79.968,13.471,79.968z
								 M24.256,79.968c-0.548,0-0.995-0.444-0.995-0.995c0-0.544,0.447-0.991,0.995-0.995c0.544,0.003,0.991,0.45,0.991,0.995
								C25.248,79.524,24.802,79.968,24.256,79.968z"/>
						</g>
					</g>
					<g>
						<path fill="#10FF31" d="M36.316,98.655c0,1.31-1.059,2.367-2.364,2.367c-1.309,0-2.366-1.056-2.366-2.363l-0.002-2.112
							l-0.006-7.793c0-1.306,1.058-2.365,2.364-2.365c1.306,0,2.363,1.058,2.368,2.36l0.005,7.798L36.316,98.655z"/>
					</g>
					<g>
						<path fill="#10FF31" d="M6.147,98.655c0,1.31-1.059,2.367-2.361,2.367c-1.309,0-2.368-1.056-2.369-2.363l-0.001-2.112
							L1.41,88.754c0-1.306,1.057-2.365,2.363-2.365c1.307,0,2.364,1.058,2.368,2.36l0.005,7.798L6.147,98.655z"/>
					</g>
				</g>
				<g>
					<path fill="#FFFFFF" d="M18.127,89.976l-3.106,9.016H12.72l-3.068-9.016h2.188l1.88,6.275c0.101,0.341,0.162,0.639,0.183,0.899
						h0.038c0.029-0.281,0.094-0.589,0.194-0.926l1.867-6.249H18.127z"/>
					<path fill="#FFFFFF" d="M27.319,98.992h-2.049l-3.717-5.665c-0.216-0.331-0.369-0.581-0.452-0.749h-0.025
						c0.034,0.318,0.05,0.805,0.05,1.458v4.955h-1.917v-9.016h2.188l3.578,5.489c0.164,0.247,0.313,0.492,0.452,0.736h0.025
						c-0.034-0.21-0.05-0.623-0.05-1.238v-4.987h1.917V98.992z"/>
				</g>
			</g>
		</g>
	</g>
	<g>
		
			<image overflow="visible" opacity="0.75" width="188" height="52" xlink:href="6A3F5A61.png"  transform="matrix(1 0 0 1 -0.9922 130.5078)">
		</image>
		<g>
			<g>
				<g>
					<path fill="#10FF31" d="M46.064,166.764c0.914,0,1.648,0.267,2.347,0.866v-0.7h2.06v8.317h-2.06v-0.697
						c-0.698,0.614-1.433,0.863-2.347,0.863c-2.429,0-4.142-1.896-4.142-4.325C41.923,168.661,43.635,166.764,46.064,166.764z
						 M48.411,172.388v-2.595c-0.616-0.815-1.433-1.082-2.081-1.082c-1.281,0-2.278,1.016-2.278,2.377
						c0,1.366,0.997,2.38,2.278,2.38C46.979,173.468,47.795,173.219,48.411,172.388z"/>
					<path fill="#10FF31" d="M52.898,166.93h2.062v0.682c0.533-0.532,1.248-0.848,2.147-0.848c2.095,0,3.476,1.681,3.476,3.811
						v4.673h-2.063v-4.723c0-0.999-0.783-1.813-1.78-1.813c-0.981,0-1.78,0.83-1.78,1.813v4.723h-2.062V166.93z"/>
					<path fill="#10FF31" d="M66.592,166.764c0.914,0,1.646,0.267,2.345,0.866v-3.194H71v10.812h-2.063v-0.697
						c-0.699,0.614-1.431,0.863-2.345,0.863c-2.429,0-4.143-1.896-4.143-4.325C62.449,168.661,64.163,166.764,66.592,166.764z
						 M68.937,172.388v-2.595c-0.615-0.815-1.431-1.082-2.081-1.082c-1.279,0-2.278,1.016-2.278,2.377
						c0,1.366,0.999,2.38,2.278,2.38C67.506,173.468,68.322,173.219,68.937,172.388z"/>
					<path fill="#10FF31" d="M73.426,166.93h2.062v0.849c0.466-0.632,1.165-1.015,2.147-1.015h0.232v2.098H77.27
						c-1.166,0-1.782,0.781-1.782,1.796v4.59h-2.062V166.93z"/>
					<path fill="#10FF31" d="M78.97,171.088c0-2.41,1.96-4.324,4.373-4.324c2.412,0,4.375,1.914,4.375,4.324
						c0,2.48-1.979,4.325-4.375,4.325C80.949,175.413,78.97,173.568,78.97,171.088z M85.59,171.088c0-1.38-1.032-2.377-2.247-2.377
						c-1.229,0-2.244,0.997-2.244,2.377c0,1.397,0.997,2.38,2.244,2.38C84.591,173.468,85.59,172.485,85.59,171.088z"/>
					<path fill="#10FF31" d="M89.375,164.719c0-0.698,0.582-1.282,1.28-1.282c0.699,0,1.281,0.584,1.281,1.282
						c0,0.697-0.582,1.28-1.281,1.28C89.957,165.999,89.375,165.416,89.375,164.719z M89.626,166.93h2.062v8.317h-2.062V166.93z"/>
					<path fill="#10FF31" d="M97.728,166.764c0.915,0,1.647,0.267,2.346,0.866v-3.194h2.061v10.812h-2.061v-0.697
						c-0.698,0.614-1.431,0.863-2.346,0.863c-2.429,0-4.143-1.896-4.143-4.325C93.585,168.661,95.299,166.764,97.728,166.764z
						 M100.073,172.388v-2.595c-0.617-0.815-1.431-1.082-2.08-1.082c-1.28,0-2.278,1.016-2.278,2.377c0,1.366,0.998,2.38,2.278,2.38
						C98.643,173.468,99.456,173.219,100.073,172.388z"/>
					<path fill="#10FF31" d="M112.48,166.764c0.912,0,1.646,0.267,2.346,0.866v-0.7h2.061v8.317h-2.061v-0.697
						c-0.699,0.614-1.434,0.863-2.346,0.863c-2.428,0-4.143-1.896-4.143-4.325C108.338,168.661,110.053,166.764,112.48,166.764z
						 M114.826,172.388v-2.595c-0.616-0.815-1.434-1.082-2.079-1.082c-1.281,0-2.277,1.016-2.277,2.377
						c0,1.366,0.996,2.38,2.277,2.38C113.393,173.468,114.21,173.219,114.826,172.388z"/>
					<path fill="#10FF31" d="M123.207,173.468c0.816,0,1.515-0.482,1.929-1.113l0.2-0.3l1.748,1.03l-0.314,0.483
						c-0.732,1.114-2.048,1.845-3.563,1.845c-2.378,0-4.372-1.91-4.372-4.325c0-2.41,1.994-4.324,4.372-4.324
						c1.515,0,2.83,0.732,3.563,1.847l0.314,0.48l-1.748,1.035l-0.2-0.3c-0.414-0.618-1.112-1.133-1.929-1.115
						c-1.232,0-2.244,0.997-2.244,2.377C120.963,172.47,121.975,173.468,123.207,173.468z"/>
					<path fill="#10FF31" d="M132.438,166.764c0.914,0,1.647,0.267,2.346,0.866v-0.7h2.062v8.317h-2.062v-0.697
						c-0.698,0.614-1.432,0.863-2.346,0.863c-2.428,0-4.142-1.896-4.142-4.325C128.297,168.661,130.011,166.764,132.438,166.764z
						 M134.784,172.388v-2.595c-0.617-0.815-1.432-1.082-2.079-1.082c-1.282,0-2.28,1.016-2.28,2.377c0,1.366,0.998,2.38,2.28,2.38
						C133.353,173.468,134.167,173.219,134.784,172.388z"/>
					<path fill="#10FF31" d="M142.97,166.764c0.915,0,1.647,0.267,2.345,0.866v-3.194h2.063v10.812h-2.063v-0.697
						c-0.697,0.614-1.43,0.863-2.345,0.863c-2.427,0-4.144-1.896-4.144-4.325C138.826,168.661,140.543,166.764,142.97,166.764z
						 M145.314,172.388v-2.595c-0.614-0.815-1.43-1.082-2.076-1.082c-1.283,0-2.279,1.016-2.279,2.377
						c0,1.366,0.996,2.38,2.279,2.38C143.885,173.468,144.7,173.219,145.314,172.388z"/>
					<path fill="#10FF31" d="M149.33,171.056c0-2.428,1.999-4.292,4.343-4.292c2.445,0,4.375,1.881,4.375,4.292v0.665h-6.504
						c0.282,0.998,1.148,1.73,2.181,1.73c0.779,0,1.495-0.399,1.928-0.997l1.815,0.88c-0.748,1.28-2.131,2.079-3.795,2.079
						C151.345,175.413,149.33,173.535,149.33,171.056z M151.577,170.225h4.292c-0.282-1.017-1.116-1.63-2.145-1.63
						C152.725,168.595,151.877,169.226,151.577,170.225z"/>
					<path fill="#10FF31" d="M159.903,166.93h2.066v0.768c0.516-0.583,1.246-0.934,2.13-0.934c1.08,0,1.896,0.549,2.394,1.331
						c0.55-0.832,1.415-1.331,2.479-1.331c2.146,0,3.243,1.696,3.243,3.494v4.989h-2.062v-4.856c0-0.997-0.632-1.68-1.529-1.68
						c-0.882,0-1.532,0.698-1.532,1.68v4.856h-2.062v-4.856c0-0.997-0.633-1.68-1.531-1.68c-0.882,0-1.529,0.698-1.529,1.68v4.856
						h-2.066V166.93z"/>
					<path fill="#10FF31" d="M174.284,175.662c0.533,0.333,0.966,0.401,1.198,0.401c0.518,0,0.85-0.268,0.98-0.583l0.05-0.116
						l-3.109-8.435h2.411l1.948,5.89l1.926-5.89h2.332l-3.044,8.317c-0.766,2.113-2.031,2.661-3.227,2.661
						c-0.898,0-1.713-0.231-2.331-0.648L174.284,175.662z"/>
				</g>
				<g>
					<path fill="#FFFFFF" d="M64.196,137.607l-9.86,21.217h-2.542l-9.889-21.217h5.594l5.566,12.063l5.594-12.063H64.196z"/>
					<path fill="#FFFFFF" d="M66.594,137.636h5.566v21.188h-5.566V137.636z"/>
					<path fill="#FFFFFF" d="M76.425,137.636H89.59v4.604h-7.599v3.447h6.724v4.69h-6.724v3.898h7.599v4.548H76.425V137.636z"/>
					<path fill="#FFFFFF" d="M93.12,137.607h16.696v5.538h-5.622v15.679h-5.565v-15.679H93.12V137.607z"/>
					<path fill="#FFFFFF" d="M129.224,158.824l-10.002-10.03v10.03h-5.565v-21.188h2.261l10.029,10.002v-10.002h5.564v21.188
						H129.224z"/>
					<path fill="#FFFFFF" d="M134.362,158.824l9.889-21.188h2.515l9.973,21.188h-5.565l-1.3-2.769H141.2l-1.272,2.769H134.362z
						 M143.375,151.365h4.321l-2.146-4.66L143.375,151.365z"/>
					<path fill="#FFFFFF" d="M170.72,145.49l8.617-7.854h2.514v21.188h-5.594v-10.876l-5.537,5.056l-5.564-5.028v10.849h-5.596
						v-21.188h2.516L170.72,145.49z"/>
				</g>
				<g>
					<g>
						<g>
							<g>
								<path fill="#FFFFFF" d="M30.657,147.494l-23.668,0.008l0.005,17.177c-0.002,1.564,1.264,2.825,2.823,2.825l1.923,0.002
									l0.002,5.863c-0.002,1.461,1.187,2.646,2.644,2.646c1.464,0,2.649-1.185,2.649-2.647l-0.002-5.863h3.575v5.863
									c0,1.463,1.188,2.647,2.646,2.645c1.462,0.003,2.649-1.184,2.649-2.645v-5.863l1.931-0.002
									c1.558,0.002,2.824-1.263,2.824-2.827V147.494z"/>
							</g>
						</g>
						<g>
							<path fill="#FFFFFF" d="M24.623,137.211l1.833-3.35c0.097-0.175,0.033-0.398-0.143-0.499c-0.179-0.096-0.4-0.027-0.495,0.147
								l-1.854,3.387c-1.561-0.692-3.305-1.083-5.153-1.083c-1.842,0-3.587,0.391-5.141,1.079l-1.855-3.378
								c-0.096-0.18-0.318-0.246-0.493-0.147c-0.18,0.099-0.245,0.32-0.146,0.494l1.837,3.35c-3.608,1.861-6.046,5.405-6.044,9.471
								h23.687C30.657,142.613,28.225,139.077,24.623,137.211z M13.471,142.477c-0.545,0-0.992-0.444-0.992-0.99
								c0-0.547,0.446-0.996,0.991-0.996c0.549,0,0.995,0.449,0.995,0.996C14.465,142.032,14.02,142.477,13.471,142.477z
								 M24.256,142.477c-0.548,0-0.995-0.444-0.995-0.996c0-0.543,0.447-0.99,0.995-0.993c0.544,0.003,0.991,0.45,0.991,0.993
								C25.248,142.032,24.802,142.477,24.256,142.477z"/>
						</g>
					</g>
					<g>
						<path fill="#FFFFFF" d="M36.316,161.164c0,1.31-1.059,2.367-2.364,2.367c-1.309,0-2.366-1.056-2.366-2.363l-0.002-2.113
							l-0.006-7.792c0-1.307,1.058-2.365,2.364-2.365c1.306,0,2.363,1.058,2.368,2.36l0.005,7.797L36.316,161.164z"/>
					</g>
					<g>
						<path fill="#FFFFFF" d="M6.147,161.164c0,1.31-1.059,2.367-2.361,2.367c-1.309,0-2.368-1.056-2.369-2.363l-0.001-2.113
							l-0.006-7.792c0-1.307,1.057-2.365,2.363-2.365c1.307,0,2.364,1.058,2.368,2.36l0.005,7.797L6.147,161.164z"/>
					</g>
				</g>
				<g>
					<path fill="#10FF31" d="M18.127,152.484l-3.106,9.017H12.72l-3.068-9.017h2.188l1.88,6.274c0.101,0.341,0.162,0.64,0.183,0.9
						h0.038c0.029-0.281,0.094-0.59,0.194-0.927l1.867-6.248H18.127z"/>
					<path fill="#10FF31" d="M27.319,161.501h-2.049l-3.717-5.664c-0.216-0.331-0.369-0.582-0.452-0.749h-0.025
						c0.034,0.318,0.05,0.805,0.05,1.458v4.955h-1.917v-9.017h2.188l3.578,5.488c0.164,0.248,0.313,0.493,0.452,0.736h0.025
						c-0.034-0.209-0.05-0.622-0.05-1.237v-4.987h1.917V161.501z"/>
				</g>
			</g>
		</g>
	</g>
</g>
</svg>
