<?xml version="1.0" encoding="utf-8"?>
<!-- Generator: Adobe Illustrator 16.0.0, SVG Export Plug-In . SVG Version: 6.00 Build 0)  -->
<!DOCTYPE svg PUBLIC "-//W3C//DTD SVG 1.1//EN" "http://www.w3.org/Graphics/SVG/1.1/DTD/svg11.dtd">
<svg version="1.1" id="Layer_1" xmlns="http://www.w3.org/2000/svg" xmlns:xlink="http://www.w3.org/1999/xlink" x="0px" y="0px"
	 width="360px" height="150px" viewBox="0 0 360 150" enable-background="new 0 0 360 150" xml:space="preserve">
<g>
	<polygon fill-rule="evenodd" clip-rule="evenodd" fill="#AA1F24" points="304.206,128.913 4.362,128.913 15.138,85.993 
		314.98,85.993 	"/>
	<polygon fill-rule="evenodd" clip-rule="evenodd" fill="#1D1C1A" points="314.977,86.004 15.132,86.004 36.402,0.449 336.24,0.449 
			"/>
	<path fill-rule="evenodd" clip-rule="evenodd" fill="#1D1C1A" d="M33.211,132.849l-2.501,8.358c-0.406,1.36-1.178,2.441-2.314,3.24
		c-1.135,0.801-2.454,1.199-3.957,1.199c-1.325,0-2.324-0.297-3.001-0.892c-0.676-0.595-0.967-1.424-0.875-2.483
		c0.017-0.191,0.053-0.394,0.108-0.605c0.054-0.209,0.092-0.363,0.112-0.459l2.501-8.358h2.599l-2.453,8.214
		c-0.032,0.096-0.061,0.211-0.084,0.343c-0.023,0.134-0.039,0.247-0.047,0.344c-0.099,1.133,0.502,1.696,1.802,1.696
		c0.732,0,1.371-0.211,1.914-0.63c0.542-0.425,0.931-1.007,1.163-1.753l2.454-8.214H33.211z"/>
	<path fill-rule="evenodd" clip-rule="evenodd" fill="#1D1C1A" d="M42.247,139.545l-1.779,5.904h-2.365l1.594-5.233
		c0.055-0.205,0.089-0.393,0.104-0.563c0.072-0.828-0.368-1.245-1.321-1.245c-0.555,0-1.085,0.2-1.591,0.598
		c-0.504,0.396-0.842,0.878-1.013,1.442l-1.486,5.001h-2.372l2.379-8l2.612-1.157l-0.437,1.462c0.459-0.442,0.956-0.775,1.486-0.998
		c0.531-0.222,1.116-0.333,1.754-0.333c0.843,0,1.49,0.177,1.941,0.523c0.506,0.398,0.726,0.981,0.659,1.751
		c-0.011,0.12-0.029,0.256-0.053,0.406C42.333,139.253,42.295,139.402,42.247,139.545z"/>
	<polygon fill-rule="evenodd" clip-rule="evenodd" fill="#1D1C1A" points="49.271,132.519 45.396,145.449 43.031,145.449 
		46.57,133.677 	"/>
	<path fill-rule="evenodd" clip-rule="evenodd" fill="#1D1C1A" d="M56.205,139.116c-0.105-0.307-0.306-0.557-0.604-0.746
		c-0.296-0.191-0.661-0.285-1.093-0.285c-0.71,0-1.408,0.276-2.096,0.831c-0.686,0.556-1.124,1.146-1.31,1.774l-0.062,0.279
		l-0.016,0.191l-0.016,0.18l-0.003,0.036L56.205,139.116L56.205,139.116z M58.497,139.728l-7.193,3.178
		c0.137,0.226,0.261,0.395,0.371,0.504c0.344,0.337,0.762,0.505,1.256,0.505c0.578,0,1.166-0.203,1.769-0.614
		c0.192-0.129,0.439-0.341,0.741-0.63l1.322,0.975c-0.498,0.469-0.926,0.818-1.282,1.047c-1.084,0.698-2.198,1.047-3.34,1.047
		c-1.12,0-2.008-0.342-2.666-1.022c-0.655-0.681-0.938-1.558-0.844-2.631c0.028-0.313,0.093-0.635,0.194-0.96
		c0.375-1.265,1.126-2.362,2.256-3.29c1.192-0.977,2.487-1.467,3.882-1.467c1.034,0,1.868,0.304,2.501,0.909
		C58.099,137.883,58.443,138.697,58.497,139.728z"/>
	<path fill-rule="evenodd" clip-rule="evenodd" fill="#1D1C1A" d="M66.13,141.001c0.064-0.192,0.12-0.402,0.164-0.631
		c0.043-0.228,0.073-0.425,0.088-0.595c0.045-0.514-0.049-0.888-0.283-1.113c-0.232-0.229-0.62-0.343-1.161-0.343
		c-0.663,0-1.269,0.236-1.822,0.71c-0.552,0.475-0.958,1.142-1.213,2.007c-0.089,0.322-0.142,0.593-0.161,0.809
		c-0.055,0.624,0.075,1.092,0.392,1.404c0.316,0.313,0.738,0.467,1.268,0.467c0.65,0,1.198-0.216,1.646-0.647
		C65.493,142.637,65.855,141.946,66.13,141.001L66.13,141.001z M69.833,136.642l-2.646,8.808h-2.258l0.306-1.01
		c-0.356,0.359-0.827,0.66-1.407,0.902c-0.579,0.241-1.171,0.36-1.771,0.36c-1.036,0-1.808-0.323-2.318-0.974
		c-0.464-0.6-0.651-1.404-0.563-2.413c0.035-0.398,0.118-0.823,0.256-1.279c0.39-1.297,1.117-2.385,2.18-3.262
		c1.064-0.876,2.162-1.313,3.293-1.313c0.601,0,1.102,0.104,1.507,0.315c0.402,0.21,0.689,0.494,0.863,0.856l0.304-0.991H69.833z"/>
	<path fill-rule="evenodd" clip-rule="evenodd" fill="#1D1C1A" d="M78.297,137.073l-1.042,1.607
		c-0.25-0.169-0.456-0.294-0.617-0.381c-0.496-0.252-0.967-0.379-1.412-0.379c-0.387,0-0.737,0.1-1.055,0.299
		c-0.319,0.197-0.52,0.43-0.603,0.694l-0.037,0.217c-0.032,0.373,0.568,0.759,1.803,1.155c1.233,0.396,1.814,1.028,1.738,1.896
		l-0.025,0.289c-0.048,0.146-0.082,0.252-0.101,0.325c-0.24,0.83-0.77,1.522-1.589,2.076c-0.894,0.602-1.955,0.903-3.182,0.903
		c-0.82,0-1.571-0.139-2.258-0.417c-0.221-0.083-0.484-0.229-0.792-0.432l1.155-1.824c0.199,0.217,0.373,0.372,0.521,0.468
		c0.468,0.314,0.998,0.472,1.59,0.472c0.519,0,0.973-0.112,1.36-0.335c0.388-0.222,0.627-0.503,0.716-0.839l0.04-0.234
		c0.035-0.396-0.559-0.771-1.78-1.12c-1.222-0.349-1.795-0.945-1.721-1.786c0.009-0.108,0.018-0.224,0.029-0.344
		c0.048-0.133,0.08-0.223,0.097-0.271c0.222-0.746,0.71-1.382,1.467-1.912c0.846-0.59,1.83-0.885,2.948-0.885
		c0.721,0,1.397,0.125,2.024,0.379C77.782,136.779,78.024,136.904,78.297,137.073z"/>
	<path fill-rule="evenodd" clip-rule="evenodd" fill="#1D1C1A" d="M88.441,139.354l-1.833,6.096h-2.365l1.628-5.411l0.056-0.217
		l0.018-0.2c0.071-0.82-0.381-1.23-1.355-1.23c-0.602,0-1.135,0.165-1.596,0.497c-0.463,0.333-0.771,0.758-0.926,1.277l-1.58,5.284
		h-2.364l3.519-11.755l2.719-1.157l-1.556,5.187c0.351-0.306,0.653-0.53,0.907-0.677c0.762-0.451,1.547-0.679,2.352-0.679
		c0.842,0,1.49,0.199,1.943,0.598c0.452,0.398,0.647,0.955,0.586,1.665C88.577,138.836,88.526,139.075,88.441,139.354z"/>
	<polygon fill-rule="evenodd" clip-rule="evenodd" fill="#1D1C1A" points="105.701,136.658 97.02,148.591 94.331,148.591 
		96.935,145.237 95.898,136.658 98.46,136.658 98.928,142.67 103.101,136.658 	"/>
	<path fill-rule="evenodd" clip-rule="evenodd" fill="#1D1C1A" d="M112.305,141.019c0.065-0.18,0.106-0.378,0.125-0.596
		c0.051-0.574-0.095-1.055-0.434-1.438c-0.341-0.384-0.811-0.576-1.413-0.576c-0.721,0-1.397,0.25-2.022,0.748
		c-0.628,0.496-1.061,1.147-1.301,1.951c-0.032,0.096-0.058,0.214-0.083,0.351c-0.025,0.138-0.041,0.262-0.049,0.37
		c-0.055,0.622,0.088,1.102,0.432,1.438c0.342,0.335,0.805,0.504,1.383,0.504c0.723,0,1.403-0.252,2.042-0.756
		C111.624,142.513,112.064,141.845,112.305,141.019L112.305,141.019z M114.574,141.071c-0.385,1.263-1.15,2.35-2.29,3.263
		c-1.216,0.972-2.521,1.458-3.917,1.458c-1.131,0-2.038-0.351-2.717-1.054c-0.676-0.703-0.967-1.601-0.873-2.693
		c0.027-0.299,0.09-0.611,0.19-0.938c0.406-1.333,1.222-2.457,2.452-3.368c1.229-0.914,2.481-1.371,3.757-1.371
		c1.095,0,1.988,0.358,2.679,1.073c0.69,0.714,0.985,1.619,0.89,2.711c-0.012,0.133-0.031,0.279-0.056,0.441
		C114.663,140.756,114.624,140.916,114.574,141.071z"/>
	<path fill-rule="evenodd" clip-rule="evenodd" fill="#1D1C1A" d="M126.425,136.658l-1.708,5.693
		c-0.337,1.104-0.943,1.945-1.818,2.522c-0.875,0.575-2.017,0.864-3.425,0.864c-1.144,0-1.997-0.207-2.563-0.622
		c-0.567-0.413-0.812-1.048-0.736-1.899c0.01-0.132,0.028-0.271,0.055-0.417c0.023-0.144,0.061-0.293,0.11-0.448l1.708-5.693h2.366
		l-1.604,5.329c-0.071,0.264-0.113,0.444-0.119,0.54c-0.072,0.816,0.392,1.226,1.39,1.226c1.228,0,2.02-0.588,2.375-1.766
		l1.604-5.329H126.425z"/>
	<path fill-rule="evenodd" clip-rule="evenodd" fill="#1D1C1A" d="M134.688,136.495l-1.189,2.257l-0.144-0.018
		c-0.284-0.059-0.448-0.091-0.495-0.091c-0.531,0-1.054,0.188-1.567,0.561c-0.592,0.433-0.996,1.004-1.213,1.714l-1.354,4.531
		h-2.364l2.395-7.983l2.611-1.174l-0.482,1.59c0.375-0.433,0.851-0.784,1.428-1.054s1.186-0.405,1.825-0.405l0.257,0.018
		L134.688,136.495z"/>
	<path fill-rule="evenodd" clip-rule="evenodd" fill="#1D1C1A" d="M146.481,141.188c0.047-0.133,0.084-0.271,0.106-0.415
		c0.026-0.145,0.045-0.294,0.06-0.451c0.054-0.613-0.063-1.095-0.346-1.442c-0.283-0.35-0.727-0.525-1.332-0.525
		c-1.279,0-2.194,0.933-2.744,2.799c-0.12,0.386-0.193,0.746-0.222,1.084c-0.093,1.07,0.341,1.605,1.309,1.605
		c0.652,0,1.249-0.198,1.792-0.596C145.762,142.766,146.221,142.08,146.481,141.188L146.481,141.188z M148.965,141.063
		c-0.423,1.384-1.14,2.498-2.15,3.34c-1.015,0.842-2.129,1.265-3.344,1.265c-0.697,0-1.283-0.188-1.755-0.562
		c-0.146-0.119-0.311-0.307-0.493-0.559l-1.016,3.354l-2.672,1.048l3.693-12.307h2.256l-0.326,1.045
		c0.418-0.385,0.894-0.69,1.426-0.921c0.53-0.227,1.086-0.343,1.664-0.343c0.951,0,1.697,0.276,2.238,0.831
		c0.584,0.602,0.83,1.438,0.737,2.509C149.191,140.123,149.105,140.558,148.965,141.063z"/>
	<path fill-rule="evenodd" clip-rule="evenodd" fill="#1D1C1A" d="M158.013,141.019c0.064-0.18,0.106-0.378,0.124-0.596
		c0.05-0.574-0.095-1.055-0.433-1.438c-0.34-0.384-0.811-0.576-1.413-0.576c-0.722,0-1.397,0.25-2.023,0.748
		c-0.629,0.496-1.061,1.147-1.3,1.951c-0.033,0.096-0.061,0.214-0.084,0.351c-0.025,0.138-0.042,0.262-0.051,0.37
		c-0.054,0.622,0.089,1.102,0.434,1.438c0.342,0.335,0.804,0.504,1.382,0.504c0.721,0,1.403-0.252,2.042-0.756
		C157.331,142.513,157.771,141.845,158.013,141.019L158.013,141.019z M160.283,141.071c-0.385,1.263-1.151,2.35-2.29,3.263
		c-1.216,0.972-2.522,1.458-3.917,1.458c-1.133,0-2.037-0.351-2.715-1.054c-0.679-0.703-0.971-1.601-0.876-2.693
		c0.027-0.299,0.091-0.611,0.19-0.938c0.405-1.333,1.223-2.457,2.453-3.368c1.229-0.914,2.481-1.371,3.757-1.371
		c1.095,0,1.987,0.358,2.678,1.073c0.689,0.714,0.985,1.619,0.89,2.711c-0.011,0.133-0.03,0.279-0.056,0.441
		C160.371,140.756,160.333,140.916,160.283,141.071z"/>
	<polygon fill-rule="evenodd" clip-rule="evenodd" fill="#1D1C1A" points="168.16,136.658 166.986,138.537 165.793,138.537 
		163.708,145.449 161.345,145.449 163.43,138.537 162.167,138.537 167.325,133.404 166.355,136.658 	"/>
	<path fill-rule="evenodd" clip-rule="evenodd" fill="#1D1C1A" d="M174.88,139.116c-0.107-0.307-0.307-0.557-0.604-0.746
		c-0.296-0.191-0.662-0.285-1.095-0.285c-0.709,0-1.408,0.276-2.095,0.831c-0.686,0.556-1.123,1.146-1.311,1.774l-0.061,0.279
		l-0.017,0.191l-0.016,0.18l-0.004,0.036L174.88,139.116L174.88,139.116z M177.171,139.728l-7.192,3.178
		c0.136,0.226,0.261,0.395,0.371,0.504c0.345,0.337,0.762,0.505,1.256,0.505c0.579,0,1.167-0.203,1.768-0.614
		c0.193-0.129,0.439-0.341,0.741-0.63l1.324,0.975c-0.499,0.469-0.927,0.818-1.284,1.047c-1.083,0.698-2.198,1.047-3.341,1.047
		c-1.119,0-2.006-0.342-2.664-1.022c-0.655-0.681-0.938-1.558-0.844-2.631c0.028-0.313,0.091-0.635,0.192-0.96
		c0.377-1.265,1.129-2.362,2.257-3.29c1.193-0.977,2.486-1.467,3.882-1.467c1.036,0,1.869,0.304,2.502,0.909
		S177.117,138.697,177.171,139.728z"/>
	<path fill-rule="evenodd" clip-rule="evenodd" fill="#1D1C1A" d="M187.457,139.545l-1.778,5.904h-2.365l1.594-5.233
		c0.054-0.205,0.089-0.393,0.104-0.563c0.073-0.828-0.368-1.245-1.321-1.245c-0.555,0-1.086,0.2-1.59,0.598
		c-0.505,0.396-0.843,0.878-1.014,1.442l-1.487,5.001h-2.37l2.377-8l2.611-1.157l-0.435,1.462c0.459-0.442,0.956-0.775,1.486-0.998
		c0.531-0.222,1.114-0.333,1.752-0.333c0.844,0,1.49,0.177,1.941,0.523c0.506,0.398,0.727,0.981,0.658,1.751
		c-0.01,0.12-0.029,0.256-0.052,0.406C187.544,139.253,187.506,139.402,187.457,139.545z"/>
	<polygon fill-rule="evenodd" clip-rule="evenodd" fill="#1D1C1A" points="195.294,136.658 194.119,138.537 192.926,138.537 
		190.84,145.449 188.477,145.449 190.563,138.537 189.299,138.537 194.459,133.404 193.488,136.658 	"/>
	<path fill-rule="evenodd" clip-rule="evenodd" fill="#1D1C1A" d="M199.57,134.383c-0.103,0.35-0.318,0.665-0.651,0.948
		c-0.332,0.284-0.689,0.425-1.075,0.425c-0.349,0-0.616-0.096-0.804-0.289c-0.188-0.192-0.27-0.446-0.243-0.759
		c0.007-0.06,0.027-0.15,0.061-0.271c0.119-0.395,0.341-0.728,0.665-0.992c0.323-0.265,0.687-0.397,1.082-0.397
		c0.324,0,0.584,0.1,0.777,0.299c0.192,0.198,0.276,0.448,0.25,0.75C199.627,134.168,199.605,134.264,199.57,134.383L199.57,134.383
		z M198.771,136.315l-2.75,9.134h-2.363l2.393-7.96L198.771,136.315z"/>
	<path fill-rule="evenodd" clip-rule="evenodd" fill="#1D1C1A" d="M206.085,141.001c0.065-0.192,0.121-0.402,0.165-0.631
		c0.043-0.228,0.072-0.425,0.088-0.595c0.044-0.514-0.05-0.888-0.282-1.113c-0.232-0.229-0.619-0.343-1.161-0.343
		c-0.662,0-1.271,0.236-1.822,0.71c-0.553,0.475-0.957,1.142-1.213,2.007c-0.09,0.322-0.143,0.593-0.163,0.809
		c-0.055,0.624,0.077,1.092,0.392,1.404c0.318,0.313,0.738,0.467,1.27,0.467c0.65,0,1.197-0.216,1.644-0.647
		C205.448,142.637,205.811,141.946,206.085,141.001L206.085,141.001z M209.788,136.642l-2.646,8.808h-2.258l0.307-1.01
		c-0.357,0.359-0.828,0.66-1.407,0.902c-0.579,0.241-1.172,0.36-1.772,0.36c-1.035,0-1.809-0.323-2.316-0.974
		c-0.466-0.6-0.652-1.404-0.566-2.413c0.037-0.398,0.12-0.823,0.259-1.279c0.39-1.297,1.116-2.385,2.18-3.262
		c1.063-0.876,2.16-1.313,3.293-1.313c0.601,0,1.103,0.104,1.506,0.315c0.402,0.21,0.688,0.494,0.863,0.856l0.304-0.991H209.788z"/>
	<polygon fill-rule="evenodd" clip-rule="evenodd" fill="#1D1C1A" points="215.944,132.519 212.067,145.449 209.706,145.449 
		213.244,133.677 	"/>
	<path fill-rule="evenodd" clip-rule="evenodd" fill="#EDB11E" d="M69.446,47.426l-0.279-16.818l-8.805,16.818H69.446L69.446,47.426
		z M80.67,64.669H69.365l-0.427-9.829H56.913l-5.198,9.829H40.52L65.8,21.766h10.999L80.67,64.669z"/>
	<path fill-rule="evenodd" clip-rule="evenodd" fill="#EDB11E" d="M109.07,50.147c0.667-2.68,0.55-4.7-0.352-6.063
		c-0.897-1.358-2.401-2.04-4.479-2.04c-1.564,0-2.997,0.704-4.287,2.101c-1.289,1.402-2.26,3.402-2.914,6.001
		c-0.637,2.424-0.651,4.381-0.03,5.747c0.623,1.357,1.832,2.038,3.643,2.038c1.879,0,3.612-0.732,5.18-2.196
		C107.395,54.272,108.479,52.363,109.07,50.147L109.07,50.147z M118.842,49.898c-1.062,4.655-3.247,8.53-6.679,11.499
		c-3.233,2.764-6.692,4.142-10.395,4.142c-1.882,0-3.479-0.372-4.779-1.114c-1.021-0.574-1.98-1.482-2.875-2.72l-2.619,10.326
		l-10.497,4.558l10.298-41.836h9.202l-0.881,3.394c1.283-1.278,2.795-2.3,4.552-2.931c1.755-0.757,3.602-1.14,5.523-1.14
		c4.006,0,6.893,1.311,8.448,4.103C119.833,41.007,120.093,44.914,118.842,49.898z"/>
	<polygon fill-rule="evenodd" clip-rule="evenodd" fill="#EDB11E" points="145.526,34.753 141.051,42.414 137.32,42.414 
		131.718,64.669 122.101,64.669 127.705,42.414 123.192,42.414 142.253,22.862 139.271,34.753 	"/>
	<path fill-rule="evenodd" clip-rule="evenodd" fill="#EDB11E" d="M165.399,43.398c-0.203-0.8-0.755-1.46-1.642-1.986
		c-0.887-0.526-1.955-0.789-3.199-0.789c-2.042,0-4.009,0.804-5.893,2.415c-1.887,1.61-3.012,3.3-3.382,5.075
		c-0.053,0.25-0.084,0.538-0.084,0.866c-0.006,0.333-0.017,0.665-0.023,0.993L165.399,43.398L165.399,43.398z M174.368,46.004
		l-21.828,9.948c0.429,0.538,0.796,0.926,1.092,1.175c0.929,0.786,1.95,1.174,3.072,1.174c1.641,0,3.253-0.576,4.823-1.73
		c0.487-0.37,1.121-0.969,1.891-1.792l5.382,3.958c-4.371,4.656-9.342,6.988-14.917,6.988c-4.146,0-7.464-1.469-9.695-4.402
		c-2.322-3.058-2.87-7.003-1.665-11.7c1.122-4.507,3.587-8.288,7.402-11.344c3.55-2.979,7.577-4.452,11.831-4.452
		c3.731,0,6.723,1.123,8.987,3.224C173.007,39.288,174.218,42.273,174.368,46.004z"/>
	<path fill-rule="evenodd" clip-rule="evenodd" fill="#EDB11E" d="M205.269,36.165l-4.334,7.488
		c-0.298-0.25-0.569-0.451-0.818-0.615c-1.426-0.992-3.014-1.488-4.733-1.488c-1.924,0-3.813,0.812-5.663,2.445
		c-1.849,1.631-3.055,3.554-3.611,5.786c-0.546,2.15-0.255,3.893,0.871,5.4c1.13,1.504,2.75,2.257,4.875,2.257
		c1.245,0,2.616-0.27,4.112-0.804c0.482-0.164,1.116-0.433,1.883-0.808l0.627,6.868c-1.247,0.658-2.296,1.156-3.131,1.484
		c-2.618,0.988-5.288,1.48-8.014,1.48c-3.781,0-6.927-1.571-9.161-4.727c-2.241-3.155-2.807-6.935-1.702-11.219
		c1.104-4.409,3.57-8.215,7.355-11.412c3.602-3.059,7.734-4.661,12.19-4.661c2.404,0,4.665,0.434,6.767,1.303
		C203.473,35.229,204.301,35.545,205.269,36.165z"/>
	<path fill-rule="evenodd" clip-rule="evenodd" fill="#EDB11E" d="M231.86,64.669h-9.624l4.418-17.506
		c0.357-1.437,0.229-2.61-0.385-3.517c-0.613-0.902-1.625-1.354-3.023-1.354c-1.729,0-3.216,0.462-4.478,1.389
		c-1.068,0.924-1.817,2.209-2.226,3.854l-4.322,17.134h-9.679l9.801-38.904l10.686-5.066l-4.373,17.324
		c1.107-1.216,2.613-2.243,4.526-2.944c1.916-0.837,3.774-1.25,5.577-1.25c3.321,0,5.743,0.924,7.244,2.646
		c1.501,1.849,1.854,4.379,1.047,7.592L231.86,64.669z"/>
	<path fill-rule="evenodd" clip-rule="evenodd" fill="#EDB11E" d="M280.298,74.222c0.485-0.355,0.832-0.609,0.832-0.609
		c6.069-4.127,5.477-6.172,5.543-7.027c-0.298-14.328-11.934-14.729-11.934-14.729c-3.524,0.011-4.515,4.492-4.515,4.492
		c-0.695,3.276,1.271,8.027,1.271,8.027c0.562,2.288-0.333,3.351-0.693,4.05c0,0,4.125,0.462,6.3,3.41
		C277.102,71.836,278.829,73.748,280.298,74.222z"/>
	<path fill-rule="evenodd" clip-rule="evenodd" fill="#848384" d="M289.105,24.504c-1.463,6.472-5.667,10.873-9.706,10.008
		c-4.043-0.949-6.129-6.974-4.66-13.45c1.459-6.352,5.931-10.825,9.889-9.883C288.482,12.134,290.561,18.162,289.105,24.504z"/>
	<path fill-rule="evenodd" clip-rule="evenodd" fill="#848384" d="M304.91,35.155c-4.111,5.038-10.123,7.018-13.437,4.284
		c-3.323-2.741-2.679-9.021,1.42-14.197c4.125-5.175,10.126-7.019,13.444-4.419C309.651,23.554,309.017,29.972,304.91,35.155z"/>
	<path fill-rule="evenodd" clip-rule="evenodd" fill="#848384" d="M307.806,57.895c-4.066,4.555-9.835,5.94-12.908,3.092
		c-3.054-2.842-2.236-8.821,1.827-13.249c4.058-4.551,9.832-5.938,12.894-3.097C312.673,47.481,311.859,53.348,307.806,57.895z"/>
	<path fill-rule="evenodd" clip-rule="evenodd" fill="#848384" d="M271.25,32.161c0.288,5.865-2.834,10.888-6.971,11.099
		c-4.133,0.202-7.715-4.497-8.003-10.358c-0.28-5.99,2.84-11.017,6.965-11.218C267.385,21.479,270.968,26.169,271.25,32.161z"/>
	<path fill-rule="evenodd" clip-rule="evenodd" fill="#848384" d="M288.61,50.564c-3.905-10.456-12.724-7.607-12.724-7.607
		c-12.549,3.695-18.121,11.39-18.121,11.39c-8.264,12.162,11.809,14.031,11.809,14.031c0.396,0.047,0.645,0,1.228,0.047
		c0.36-0.699,1.254-1.762,0.693-4.05c0,0-1.966-4.751-1.271-8.027c0,0,0.99-4.481,4.515-4.492c0,0,11.636,0.401,11.934,14.729
		c-0.066,0.855,0.526,2.9-5.543,7.027c0,0-0.347,0.254-0.832,0.609c9.016,3.967,11.301-5.233,11.301-5.233
		C293.735,59.997,288.61,50.564,288.61,50.564z"/>
	<path fill-rule="evenodd" clip-rule="evenodd" fill="#EDAA00" d="M280.931,44.938c-1.229-0.96-3.279-0.321-4.568,1.41
		c-1.299,1.737-1.348,3.909-0.122,4.864c1.229,0.869,3.269,0.325,4.566-1.407C282.111,48.075,282.162,45.894,280.931,44.938z"/>
	<path fill-rule="evenodd" clip-rule="evenodd" fill="#EDAA00" d="M285.381,52.363c0.992-1.186,1.063-2.831,0.166-3.534
		c-0.719-0.7-2.171-0.192-3.16,1.136c-0.997,1.319-1.064,2.833-0.168,3.528C283.12,54.198,284.574,53.692,285.381,52.363z"/>
	<path fill-rule="evenodd" clip-rule="evenodd" fill="#EDAA00" d="M287.978,56.492c0.861-1.147,0.912-2.581,0.112-3.199
		c-0.795-0.625-2.143-0.198-2.995,0.953c-0.678,1.149-0.73,2.581-0.06,3.202C285.786,58.07,287.12,57.641,287.978,56.492z"/>
	<path fill-rule="evenodd" clip-rule="evenodd" fill="#EDAA00" d="M289.294,60.893c0.856-0.853,1.054-2.058,0.448-2.69
		c-0.61-0.642-1.792-0.47-2.646,0.385c-0.857,0.849-1.065,2.052-0.449,2.683C287.251,61.911,288.435,61.74,289.294,60.893z"/>
	<path fill-rule="evenodd" clip-rule="evenodd" fill="#EDAA00" d="M290.473,62.874c-0.487-0.606-1.537-0.571-2.334,0.092
		c-0.795,0.668-1.049,1.699-0.563,2.312c0.492,0.616,1.529,0.569,2.331-0.097C290.696,64.525,290.953,63.484,290.473,62.874z"/>
	<path fill-rule="evenodd" clip-rule="evenodd" fill="#FFFFFF" d="M44.257,102.258l-1.697,2.471
		c-0.287-0.285-0.544-0.502-0.773-0.645c-0.7-0.43-1.511-0.645-2.425-0.645c-1.333,0-2.582,0.499-3.75,1.496
		c-1.167,0.997-1.9,2.215-2.201,3.65c-0.073,0.359-0.107,0.666-0.107,0.925c0,1.092,0.365,2.025,1.095,2.8
		c0.731,0.774,1.662,1.162,2.792,1.162c0.945,0,1.869-0.196,2.771-0.59c0.301-0.133,0.658-0.328,1.074-0.592l0.558,2.47
		c-0.558,0.331-1.03,0.575-1.417,0.732c-1.203,0.501-2.37,0.751-3.501,0.751c-1.976,0-3.548-0.563-4.713-1.688
		c-1.168-1.127-1.751-2.607-1.751-4.441c0-0.445,0.01-0.762,0.034-0.947c0.021-0.187,0.066-0.452,0.139-0.797
		c0.43-2.123,1.582-3.938,3.458-5.444c1.876-1.504,3.837-2.259,5.885-2.259c1.231,0,2.355,0.266,3.373,0.796
		C43.427,101.635,43.813,101.899,44.257,102.258z"/>
	<path fill-rule="evenodd" clip-rule="evenodd" fill="#FFFFFF" d="M57.337,108.444c0.085-0.371,0.127-0.737,0.127-1.095
		c0-1.131-0.356-2.077-1.073-2.835c-0.717-0.761-1.675-1.14-2.878-1.14c-1.389,0-2.656,0.502-3.801,1.505
		c-1.146,1.001-1.869,2.19-2.169,3.564c-0.087,0.389-0.129,0.76-0.129,1.119c0,1.175,0.379,2.119,1.14,2.835
		c0.758,0.718,1.697,1.074,2.813,1.074c1.344,0,2.601-0.49,3.768-1.472C56.302,111.021,57.036,109.835,57.337,108.444
		L57.337,108.444z M60.409,108.339c-0.459,2.162-1.547,3.987-3.264,5.478c-1.833,1.591-3.953,2.385-6.359,2.385
		c-1.932,0-3.493-0.564-4.682-1.696c-1.188-1.131-1.782-2.593-1.782-4.385c0-0.387,0.006-0.668,0.021-0.847
		c0.015-0.18,0.063-0.455,0.151-0.829c0.47-2.189,1.627-4.034,3.467-5.53c1.84-1.498,3.826-2.247,5.961-2.247
		c1.975,0,3.579,0.567,4.81,1.699c1.232,1.13,1.848,2.592,1.848,4.383C60.581,107.235,60.523,107.766,60.409,108.339z"/>
	<polygon fill-rule="evenodd" clip-rule="evenodd" fill="#FFFFFF" points="79.309,100.946 78.17,115.942 75.143,115.942 
		76.28,105.539 70.58,115.939 67.986,115.944 66.697,105.561 63.434,115.942 60.408,115.942 65.649,100.946 68.676,100.946 
		70.074,112.185 76.259,100.946 	"/>
	<path fill-rule="evenodd" clip-rule="evenodd" fill="#FFFFFF" d="M89.898,105.472c0.042-0.2,0.064-0.373,0.064-0.514
		c0-1.056-0.728-1.583-2.182-1.583h-1.839l-0.962,4.532h1.924c0.841,0,1.508-0.208,2-0.629
		C89.396,106.858,89.726,106.255,89.898,105.472L89.898,105.472z M92.84,105.556c-0.302,1.414-0.942,2.54-1.922,3.376
		s-2.13,1.254-3.448,1.254h-2.963l-1.224,5.757h-3.093l3.179-14.996h5.455c1.289,0,2.302,0.315,3.039,0.943
		c0.738,0.63,1.107,1.479,1.107,2.553C92.969,104.797,92.926,105.17,92.84,105.556z"/>
	<path fill-rule="evenodd" clip-rule="evenodd" fill="#FFFFFF" d="M107.425,100.946l-2.104,9.949
		c-0.344,1.619-1.151,2.903-2.418,3.856c-1.266,0.952-2.795,1.43-4.585,1.43c-1.575,0-2.794-0.355-3.661-1.063
		c-0.868-0.711-1.3-1.695-1.3-2.954c0-0.229,0.021-0.47,0.064-0.722c0.043-0.251,0.071-0.435,0.085-0.547l2.105-9.949h3.092
		l-2.063,9.777c-0.027,0.114-0.05,0.249-0.063,0.407c-0.017,0.159-0.023,0.295-0.023,0.409c0,1.346,0.774,2.019,2.32,2.019
		c0.873,0,1.61-0.25,2.212-0.751c0.601-0.502,1.001-1.197,1.203-2.084l2.063-9.777H107.425z"/>
	<polygon fill-rule="evenodd" clip-rule="evenodd" fill="#FFFFFF" points="118.914,100.946 117.562,103.59 114.619,103.59 
		111.998,115.942 108.906,115.942 111.526,103.59 108.369,103.59 108.927,100.946 	"/>
	<polygon fill-rule="evenodd" clip-rule="evenodd" fill="#FFFFFF" points="129.354,100.946 128.171,103.375 122.717,103.375 
		121.922,107.178 127.011,107.178 126.496,109.542 121.406,109.542 120.567,113.537 126.711,113.537 125.508,115.942 
		116.96,115.942 120.138,100.946 	"/>
	<path fill-rule="evenodd" clip-rule="evenodd" fill="#FFFFFF" d="M137.621,105.384c0.029-0.113,0.043-0.271,0.043-0.469
		c0-0.514-0.176-0.91-0.526-1.188c-0.35-0.275-0.864-0.416-1.537-0.416h-1.503l-0.923,4.339h1.567c0.716,0,1.336-0.205,1.859-0.617
		C137.124,106.616,137.464,106.068,137.621,105.384L137.621,105.384z M140.477,105.116c-0.258,1.202-0.833,2.174-1.729,2.911
		c-0.895,0.737-1.937,1.105-3.125,1.105l3.65,6.81h-3.672l-2.834-6.359l-1.352,6.359h-3.095l3.179-14.996h5.069
		c1.447,0,2.5,0.281,3.158,0.839c0.587,0.486,0.881,1.203,0.881,2.148C140.606,104.306,140.564,104.699,140.477,105.116z"/>
	<polygon fill-rule="evenodd" clip-rule="evenodd" fill="#FFFFFF" points="159.55,100.946 158.368,103.375 152.914,103.375 
		152.118,107.178 157.208,107.178 156.691,109.542 151.602,109.542 150.764,113.537 156.908,113.537 155.704,115.942 
		147.156,115.942 150.334,100.946 	"/>
	<path fill-rule="evenodd" clip-rule="evenodd" fill="#FFFFFF" d="M168.763,108.381c0.087-0.386,0.129-0.759,0.129-1.117
		c0.001-1.132-0.355-2.044-1.063-2.739c-0.708-0.695-1.65-1.042-2.823-1.042h-0.753l-2.083,9.819h0.795
		c1.36,0,2.592-0.463,3.693-1.387C167.76,110.991,168.463,109.815,168.763,108.381L168.763,108.381z M171.942,108.51
		c-0.444,2.106-1.535,3.872-3.274,5.297c-1.74,1.425-3.669,2.136-5.789,2.136h-4.361l3.179-14.996h4.296
		c1.89,0,3.393,0.552,4.511,1.654c1.072,1.061,1.61,2.466,1.61,4.212c0,0.43-0.012,0.739-0.032,0.925
		C172.06,107.922,172.014,108.181,171.942,108.51z"/>
	<path fill-rule="evenodd" clip-rule="evenodd" fill="#FFFFFF" d="M187.793,100.946l-2.105,9.949
		c-0.343,1.619-1.148,2.903-2.416,3.856c-1.268,0.952-2.796,1.43-4.585,1.43c-1.576,0-2.796-0.355-3.662-1.063
		c-0.867-0.711-1.3-1.695-1.3-2.954c0-0.229,0.022-0.47,0.065-0.722c0.043-0.251,0.07-0.435,0.085-0.547l2.105-9.949h3.093
		l-2.061,9.777c-0.03,0.114-0.051,0.249-0.065,0.407c-0.015,0.159-0.022,0.295-0.022,0.409c0,1.346,0.774,2.019,2.319,2.019
		c0.874,0,1.613-0.25,2.214-0.751c0.601-0.502,1.001-1.197,1.202-2.084l2.061-9.777H187.793z"/>
	<path fill-rule="evenodd" clip-rule="evenodd" fill="#FFFFFF" d="M202.504,102.258l-1.697,2.471
		c-0.286-0.285-0.545-0.502-0.772-0.645c-0.701-0.43-1.51-0.645-2.426-0.645c-1.334,0-2.582,0.499-3.749,1.496
		s-1.901,2.215-2.201,3.65c-0.072,0.359-0.108,0.666-0.108,0.925c0,1.092,0.366,2.025,1.097,2.8s1.66,1.162,2.791,1.162
		c0.945,0,1.868-0.196,2.772-0.59c0.3-0.133,0.657-0.328,1.071-0.592l0.56,2.47c-0.56,0.331-1.03,0.575-1.418,0.732
		c-1.202,0.501-2.369,0.751-3.5,0.751c-1.976,0-3.547-0.563-4.716-1.688c-1.166-1.127-1.749-2.607-1.749-4.441
		c0-0.445,0.009-0.762,0.032-0.947c0.021-0.187,0.067-0.452,0.141-0.797c0.429-2.123,1.58-3.938,3.456-5.444
		c1.877-1.504,3.836-2.259,5.885-2.259c1.231,0,2.355,0.266,3.372,0.796C201.674,101.635,202.06,101.899,202.504,102.258z"/>
	<path fill-rule="evenodd" clip-rule="evenodd" fill="#FFFFFF" d="M210.085,109.777l-0.472-6.133l-3.128,6.137L210.085,109.777
		L210.085,109.777z M213.802,115.942h-3.327l-0.347-3.995h-4.574l-2.083,3.995h-3.351l8.421-14.996h3.22L213.802,115.942z"/>
	<polygon fill-rule="evenodd" clip-rule="evenodd" fill="#FFFFFF" points="226.966,100.946 225.614,103.59 222.671,103.59 
		220.052,115.942 216.959,115.942 219.579,103.59 216.421,103.59 216.979,100.946 	"/>
	<polygon fill-rule="evenodd" clip-rule="evenodd" fill="#FFFFFF" points="231.284,100.946 228.105,115.942 225.012,115.942 
		228.191,100.946 	"/>
	<path fill-rule="evenodd" clip-rule="evenodd" fill="#FFFFFF" d="M244.965,108.444c0.087-0.371,0.129-0.737,0.129-1.095
		c0-1.131-0.357-2.077-1.072-2.835c-0.718-0.761-1.676-1.14-2.878-1.14c-1.39,0-2.657,0.502-3.802,1.505
		c-1.147,1.001-1.869,2.19-2.17,3.564c-0.087,0.389-0.129,0.76-0.129,1.119c0,1.175,0.378,2.119,1.139,2.835
		c0.759,0.718,1.697,1.074,2.813,1.074c1.347,0,2.603-0.49,3.77-1.472C243.93,111.021,244.665,109.835,244.965,108.444
		L244.965,108.444z M248.037,108.339c-0.458,2.162-1.548,3.987-3.266,5.478c-1.832,1.591-3.952,2.385-6.357,2.385
		c-1.933,0-3.493-0.564-4.683-1.696c-1.187-1.131-1.783-2.593-1.783-4.385c0-0.387,0.009-0.668,0.024-0.847
		c0.013-0.18,0.063-0.455,0.149-0.829c0.472-2.189,1.629-4.034,3.468-5.53c1.84-1.498,3.828-2.247,5.961-2.247
		c1.975,0,3.579,0.567,4.811,1.699c1.232,1.13,1.847,2.592,1.847,4.383C248.208,107.235,248.152,107.766,248.037,108.339z"/>
	<polygon fill-rule="evenodd" clip-rule="evenodd" fill="#FFFFFF" points="265.563,100.946 262.384,115.942 259.098,115.942 
		254.201,105.116 251.903,115.942 248.874,115.942 252.053,100.946 255.404,100.946 260.236,111.925 262.557,100.946 	"/>
	<path fill-rule="evenodd" clip-rule="evenodd" fill="#1D1C1A" d="M359.833,10.969h-1.541V1.707h-0.052l-3.695,9.263h-0.999
		l-3.592-9.263h-0.053v9.263h-1.539V0.167h2.591l3.107,7.775l3.206-7.775h2.566V10.969L359.833,10.969z M346.284,1.707h-3.594v9.263
		h-1.538V1.707h-3.617v-1.54h8.749V1.707z"/>
</g>
</svg>
