<?xml version="1.0" encoding="utf-8"?>
<!-- Generator: Adobe Illustrator 19.1.1, SVG Export Plug-In . SVG Version: 6.00 Build 0)  -->
<svg version="1.1" id="Layer_1" xmlns="http://www.w3.org/2000/svg" xmlns:xlink="http://www.w3.org/1999/xlink" x="0px" y="0px"
	 viewBox="0 0 841.9 595.3" style="enable-background:new 0 0 841.9 595.3;" xml:space="preserve">
<style type="text/css">
	.st0{fill:#0096D6;}
	.st1{fill:#414042;}
</style>
<g>
	<path class="st0" d="M418.9,242.8h-0.3 M418.9,242.8l-15.3,60.1h-17l22.1-72.3H430l22.5,72.3h-17.6L418.9,242.8z"/>
	<path class="st0" d="M524.9,300.9c-2.9,1.4-9.8,3.1-18.5,3.1c-25,0-37.9-15.7-37.9-36.4c0-24.7,17.6-38.3,39.5-38.3
		c8.5,0,14.9,1.7,17.8,3.2l-3.4,12.9c-3.2-1.4-7.8-2.7-13.7-2.7c-12.9,0-22.9,7.8-22.9,24c0,14.5,8.6,23.6,23.1,23.6
		c5,0,10.4-0.9,13.7-2.3L524.9,300.9z"/>
	<polygon class="st0" points="564,244.3 544.4,244.3 544.4,230.6 600,230.6 600,244.3 580.3,244.3 580.3,302.9 564,302.9 	"/>
	<path class="st0" d="M690.2,302.9L667,230.6H685l8.8,30.6c2.5,8.7,4.7,16.8,6.5,25.9h0.3c1.8-8.7,4.1-17.3,6.6-25.5l9.2-30.9h17.4
		l-24.4,72.3H690.2z"/>
	<polygon class="st0" points="797.8,272.3 771.2,272.3 771.2,289.5 800.9,289.5 800.9,302.9 754.8,302.9 754.8,230.6 799.4,230.6 
		799.4,244 771.2,244 771.2,259 797.8,259 	"/>
	<polygon class="st1" points="72.1,238.8 71.8,238.8 72.1,238.8 51.7,302.9 42.1,302.9 66.7,230.6 77.9,230.6 102.6,302.9 
		92.6,302.9 	"/>
	<path class="st1" d="M163.3,302.9l-9.4-16c-3.7-6.1-6-10.1-8.2-14.3h-0.2c-2,4.2-4.2,8.1-7.8,14.4l-8.7,15.9h-10.7l22.1-36.6
		l-21.2-35.7H130l9.5,16.9c2.7,4.7,4.7,8.4,6.6,12.2h0.3c2-4.3,3.9-7.6,6.5-12.2l9.8-16.9h10.8l-22,35.2l22.5,37.1H163.3z"/>
	<path class="st1" d="M220.8,296.4c14.8,0,23.2-13.6,23.2-30c0-14.4-7.5-29.4-23.1-29.4c-15.5,0-23.3,14.5-23.3,30.1
		C197.7,282.4,206,296.4,220.8,296.4L220.8,296.4z M220.4,304c-19.2,0-32.5-14.8-32.5-36.7c0-23,14.2-38,33.5-38
		c19.8,0,32.6,15.1,32.6,36.6c0,24.8-15.1,38.1-33.5,38.1H220.4z"/>
	<path class="st1" d="M277,302.9v-72.3h10.3l23.1,36.6c5.2,8.5,9.6,16,12.9,23.5l0.3-0.1c-0.8-9.6-1.1-18.4-1.1-29.6v-30.4h8.8v72.3
		h-9.5l-23-36.7c-5-8.1-9.9-16.3-13.4-24.2l-0.3,0.1c0.5,9.1,0.6,17.8,0.6,29.8v30.9H277z"/>
	<rect x="626.4" y="230.6" class="st0" width="16.3" height="72.3"/>
	<g>
		<g>
			<path class="st1" d="M368.3,363.5h-6.2l-10.2-35.5h6.5l6.8,27.9h0.1l6.8-27.9h6.6l6.9,27.9h0.1l7.2-27.9h6l-10.3,35.5h-6.2
				l-7.2-27.5h-0.1L368.3,363.5z"/>
			<path class="st1" d="M422.7,363.5h-6.2l-10.2-35.5h6.5l6.8,27.9h0.1l6.8-27.9h6.6l6.9,27.9h0.1l7.2-27.9h6l-10.3,35.5h-6.2
				l-7.2-27.5h-0.1L422.7,363.5z"/>
			<path class="st1" d="M477,363.5h-6.2l-10.2-35.5h6.5l6.8,27.9h0.1l6.8-27.9h6.6l6.9,27.9h0.1l7.2-27.9h6l-10.3,35.5h-6.2
				l-7.2-27.5H484L477,363.5z"/>
			<path class="st1" d="M522.9,363.5h-7v-7.2h7V363.5z"/>
			<path class="st1" d="M538.4,338.8c0.3-8.5,5.9-11.8,14.6-11.8c2.8,0,13.2,0.8,13.2,9.9v20.4c0,1.5,0.7,2.1,2,2.1
				c0.5,0,1.3-0.1,2-0.3v4.3c-1,0.3-1.9,0.7-3.3,0.7c-5.3,0-6.1-2.7-6.3-5.4c-2.3,2.5-5.9,5.8-12.8,5.8c-6.5,0-11.1-4.1-11.1-10.2
				c0-3,0.9-9.9,10.8-11.1l9.8-1.2c1.4-0.1,3.1-0.7,3.1-4.2c0-3.7-2.7-5.8-8.3-5.8c-6.8,0-7.7,4.1-8.1,6.8H538.4z M560.3,345.4
				c-0.9,0.7-2.4,1.3-9.8,2.2c-2.9,0.4-7.6,1.3-7.6,5.8c0,3.9,2,6.2,6.4,6.2c5.6,0,11-3.6,11-8.3V345.4z"/>
			<path class="st1" d="M610.6,363.5H603l-8.8-13.4l-8.5,13.4h-7.5l12.5-18.2l-11.9-17.2h7.7l8.2,12.5l8.2-12.5h7.3l-12,17.2
				L610.6,363.5z"/>
			<path class="st1" d="M635.5,327c11.3,0,16.5,9.6,16.5,18.7c0,9.2-5.2,18.7-16.5,18.7c-11.3,0-16.5-9.6-16.5-18.7
				C619,336.6,624.2,327,635.5,327z M635.5,359.3c8.5,0,10.3-8.8,10.3-13.6c0-4.7-1.8-13.6-10.3-13.6c-8.5,0-10.3,8.8-10.3,13.6
				C625.2,350.5,627,359.3,635.5,359.3z"/>
			<path class="st1" d="M693.1,363.5h-6v-21.8c0-6.2-1.8-9.3-7.6-9.3c-3.4,0-9.4,2.2-9.4,11.8v19.3h-6v-35.5h5.6v5h0.1
				c1.3-1.9,4.6-6,10.7-6c5.5,0,12.4,2.2,12.4,12.3V363.5z"/>
			<path class="st1" d="M715.8,363.5h-7v-7.2h7V363.5z"/>
			<path class="st1" d="M754,328.1h6.5L747,363.5h-6.4l-12.9-35.5h6.9l9.2,28.9h0.1L754,328.1z"/>
			<path class="st1" d="M799.7,363.5h-6v-21.8c0-6.2-1.8-9.3-7.6-9.3c-3.4,0-9.4,2.2-9.4,11.8v19.3h-6v-35.5h5.6v5h0.1
				c1.3-1.9,4.6-6,10.7-6c5.5,0,12.4,2.2,12.4,12.3V363.5z"/>
		</g>
	</g>
	<path class="st1" d="M309.7,325.9c-10.4,0-18.8,8.4-18.8,18.8c0,10.4,8.4,18.8,18.8,18.8c10.4,0,18.8-8.4,18.8-18.8
		C328.5,334.3,320.1,325.9,309.7,325.9z M320.7,347.5l-20.1,7.3v-5.9l14.8-4.2v-0.1l-14.8-4.3v-5.7l20.1,7.3V347.5z"/>
</g>
</svg>
