<?xml version="1.0" encoding="utf-8"?>
<!-- Generator: Adobe Illustrator 16.0.0, SVG Export Plug-In . SVG Version: 6.00 Build 0)  -->
<!DOCTYPE svg PUBLIC "-//W3C//DTD SVG 1.1//EN" "http://www.w3.org/Graphics/SVG/1.1/DTD/svg11.dtd">
<svg version="1.1" id="Layer_1" xmlns="http://www.w3.org/2000/svg" xmlns:xlink="http://www.w3.org/1999/xlink" x="0px" y="0px"
	 width="150px" height="150px" viewBox="0 0 150 150" enable-background="new 0 0 150 150" xml:space="preserve">
<rect x="0.222" y="0" fill="#EE7622" width="149.806" height="150.292"/>
<path id="path2993" fill="#FFFFFF" d="M69.112,107.651c-7.771-0.804-11.293-2.088-14.552-5.308c-3.167-3.129-4.44-6.055-4.988-11.47
	c-0.131-1.291-0.22-8.159-0.22-17.006V59.027l-0.594-0.594c-0.423-0.423-0.962-0.667-1.873-0.845
	c-1.451-0.286-2.151-0.84-1.788-1.416c0.203-0.322,0.943-0.354,8.333-0.354s8.129,0.032,8.333,0.354
	c0.411,0.651-0.315,1.116-2.195,1.403c-1.956,0.299-2.565,0.623-2.881,1.529c-0.303,0.87-0.308,27.858-0.005,30.65
	c0.288,2.651,0.898,5.226,1.542,6.495c0.757,1.495,2.425,3.209,3.872,3.98c3.942,2.102,11.165,2.512,16.213,0.923
	c2.312-0.729,3.141-1.188,4.519-2.502c1.482-1.415,2.313-3.064,2.932-5.82c0.462-2.061,0.471-2.381,0.59-21.434l0.121-19.342
	l0.486-1.209c0.98-2.431,2.513-3.805,4.94-4.43c0.977-0.251,2.525-0.321,7.161-0.321h5.916v0.62c0,0.799-0.299,0.943-2.614,1.261
	c-1.034,0.142-2.19,0.386-2.568,0.54c-1.353,0.555-1.3-0.308-1.3,21.165c0,19.952-0.084,22.51-0.842,25.472
	c-0.671,2.623-2.115,5.122-4.119,7.125c-3.813,3.813-8.833,5.264-18.667,5.395C72.16,107.708,69.572,107.698,69.112,107.651z"/>
<path id="path2991" fill="#EE7622" d="M37.728,44.886"/>
<path id="path2989" fill="#EE7622" d="M37.728,44.886"/>
<path id="path2987" fill="#EE7622" d="M37.728,44.886"/>
</svg>
