<?xml version="1.0" encoding="utf-8"?>
<!-- Generator: Adobe Illustrator 16.0.0, SVG Export Plug-In . SVG Version: 6.00 Build 0)  -->
<!DOCTYPE svg PUBLIC "-//W3C//DTD SVG 1.1//EN" "http://www.w3.org/Graphics/SVG/1.1/DTD/svg11.dtd">
<svg version="1.1" id="Layer_1" xmlns="http://www.w3.org/2000/svg" xmlns:xlink="http://www.w3.org/1999/xlink" x="0px" y="0px"
	 width="360px" height="150px" viewBox="0 0 360 150" enable-background="new 0 0 360 150" xml:space="preserve">
<g>
	<g opacity="0.3">
		<g>
			<defs>
				<rect id="SVGID_1_" x="230.961" y="18.394" width="0.807" height="0.017"/>
			</defs>
			<clipPath id="SVGID_2_">
				<use xlink:href="#SVGID_1_"  overflow="visible"/>
			</clipPath>
		</g>
	</g>
	<path fill="#0551A0" d="M252.399,80.08c0-3.447,2.813-6.255,6.284-6.255c3.492,0,6.314,2.808,6.314,6.255
		c0,3.505-2.822,6.293-6.314,6.293C255.212,86.373,252.399,83.585,252.399,80.08 M263.461,80.08c0-2.931-2.159-5.048-4.777-5.048
		c-2.627,0-4.771,2.118-4.771,5.048c0,2.973,2.144,5.095,4.771,5.095C261.302,85.175,263.461,83.053,263.461,80.08 M256.262,76.513
		h2.638c1.71,0,2.673,0.601,2.673,2.103c0,1.19-0.699,1.797-1.878,1.898l1.885,3.138h-1.352l-1.819-3.089h-0.819v3.089h-1.327
		V76.513z M257.589,79.552h1.183c0.756,0,1.456-0.096,1.456-1.057c0-0.85-0.782-0.996-1.456-0.996h-1.183V79.552z"/>
	<path fill="#0551A0" d="M127.318,18.394c-9.401,0-17.389,6.114-20.182,14.597c-0.091,0.183-0.148,0.379-0.175,0.571l-0.495,1.822
		L94.663,86.549h29.742c8.946,0,16.474-5.637,19.351-13.519l1.11-4.858l11.492-49.778H127.318z"/>
	<path fill="#F27124" d="M183.452,1.341c-9.739,0-17.933,6.527-20.447,15.484c-0.191,0.623-0.366,1.297-0.465,2.002l-19.567,84.794
		h29.044c9.938,0,18.3-6.877,20.622-16.107v0.008l19.896-86.181H183.452z"/>
	<path fill="#54B848" d="M231.768,18.394c-9.082,0-16.841,5.699-19.875,13.701c-0.175,0.434-0.707,2.098-0.707,2.098l-12.079,52.356
		h29.053c9.988,0,18.375-6.901,20.652-16.149h-0.018h0.018l12.016-52.006H231.768z"/>
	<path fill="#FFFFFF" d="M114.359,37.251c-1.632,1.341-2.681,3.014-2.981,4.329l-6.159,27.75h0.355c1.906,0,3.699-0.675,5.339-2.023
		c1.655-1.34,2.696-2.983,3.081-4.889l1.584-7.048h13.199c1.906,0,3.708-0.686,5.369-2.035c1.647-1.344,2.696-3.013,3.122-4.911
		l0.074-0.366h-20.133l1.233-5.541h19.066c1.915,0,3.7-0.675,5.382-2.01c1.609-1.323,2.605-3.038,3.07-4.908l0.084-0.361
		l-26.343-0.008C117.809,35.23,115.981,35.929,114.359,37.251"/>
	<path fill="#FFFFFF" d="M248.719,36.89c-1.061-1.07-2.473-1.603-4.124-1.603h-26.309l-0.017,0.216
		c-0.146,0.546-0.184,1.021-0.184,1.461c0,1.611,0.542,2.96,1.599,4.012c1.082,1.057,2.452,1.595,4.116,1.595h5.672l-5.684,26.758
		h0.341c1.919,0,3.713-0.675,5.332-2.002c1.647-1.336,2.646-3.004,3.045-4.911l4.246-19.846h13.34l0.059-0.208
		c0.107-0.521,0.133-0.995,0.133-1.507C250.284,39.245,249.759,37.914,248.719,36.89"/>
	<path fill="#FFFFFF" d="M190.979,35.238h-17.76V35.23h-7.3l-7.28,34.1h0.359c1.948,0,3.712-0.675,5.351-2.023
		c1.632-1.34,2.635-2.983,3.026-4.889l1.51-7.021h17.935c1.903,0,3.688-0.674,5.325-1.985c1.644-1.354,2.659-2.977,3.105-4.94
		l1.338-6.164c0.088-0.5,0.139-1.007,0.139-1.516c0-1.548-0.516-2.909-1.624-3.959C194.029,35.757,192.652,35.238,190.979,35.238
		 M171.632,42.533h17.61l-1.216,5.569h-17.609L171.632,42.533z"/>
	<polygon fill="#F27124" points="23.058,143.51 23.058,139.44 25.127,139.44 25.127,127.253 23.503,127.253 22.446,130.458 
		19.213,130.458 19.213,123.266 36.273,123.266 36.273,130.458 33.043,130.458 32.016,127.253 30.372,127.253 30.372,139.44 
		32.431,139.44 32.431,143.51 	"/>
	<path fill="#F27124" d="M37.43,143.51v-4.069h2.022v-12.128H37.43v-4.047h12.482c1.553,0,2.835,0.499,3.821,1.475
		c0.981,0.99,1.485,2.222,1.485,3.787c0,1.131-0.287,2.038-0.828,2.764c-0.533,0.716-1.386,1.298-2.552,1.731
		c0.999,0.282,1.669,0.647,2.011,1.082c0.35,0.415,0.499,1.032,0.499,1.83v3.506h1.835v4.069h-7.096v-4.728
		c0-1.682-0.162-2.771-0.558-3.197c-0.404-0.448-1.103-0.681-2.172-0.681h-1.615v4.536h1.615v4.069H37.43z M44.743,127.313v4.276
		h2.048c0.974,0,1.668-0.147,2.144-0.497c0.449-0.359,0.674-0.893,0.674-1.624c0-0.732-0.225-1.273-0.674-1.64
		c-0.475-0.333-1.17-0.516-2.144-0.516H44.743z"/>
	<path fill="#F27124" d="M78.468,121.386c0,0.631-0.167,1.423-0.495,2.379c-0.346,0.934-1.003,1.782-1.993,2.59v10.279
		c0,2.274-0.745,4.08-2.269,5.377c-1.515,1.35-3.58,1.982-6.201,1.982c-2.618,0-4.662-0.633-6.185-1.947
		c-1.499-1.332-2.272-3.138-2.272-5.412v-0.017v-9.173h-2.044v-4.045h9.423v4.045h-2.127v8.457c0,1.049,0.3,1.85,0.836,2.423
		c0.53,0.508,1.341,0.792,2.369,0.792c1.049,0,1.839-0.284,2.38-0.792c0.524-0.573,0.792-1.374,0.792-2.423v-8.457h-2.094v-4.045
		h7.393c0.112-0.416,0.199-0.758,0.22-1.074h-0.965v-3.703h3.233V121.386z"/>
	<path fill="#F27124" d="M97.119,121.427c0,0.582-0.142,1.273-0.42,2.089c-0.262,0.833-0.77,1.623-1.514,2.414
		c0.915,0.916,1.615,1.981,2.13,3.139c0.59,1.39,0.877,2.846,0.877,4.37c0,1.548-0.287,3.013-0.877,4.361
		c-0.595,1.332-1.436,2.539-2.556,3.597c-0.932,0.832-1.936,1.499-3.088,1.897c-1.153,0.416-2.393,0.615-3.692,0.615
		c-1.336,0-2.551-0.199-3.7-0.615c-1.144-0.398-2.176-1.032-3.092-1.897c-1.111-1.058-1.981-2.265-2.564-3.597
		c-0.549-1.298-0.832-2.747-0.832-4.361c0-1.582,0.266-3.056,0.824-4.37c0.558-1.3,1.424-2.507,2.572-3.572
		c0.916-0.865,1.948-1.48,3.071-1.915c1.136-0.431,2.365-0.631,3.72-0.631c1.299,0,2.54,0.2,3.692,0.599
		c0.762,0.3,1.494,0.716,2.248,1.231c0.57-0.765,0.871-1.581,0.937-2.405H93.89v-3.721h3.229V121.427z M84.42,137.467
		c0.953,1.04,2.115,1.573,3.576,1.573c1.427,0,2.614-0.533,3.559-1.573c0.945-1.049,1.377-2.38,1.377-4.028
		c0-1.623-0.432-2.972-1.377-4.078c-0.945-1.051-2.132-1.565-3.559-1.565c-1.419,0-2.602,0.515-3.547,1.565
		c-0.953,1.131-1.448,2.472-1.448,4.078C83.001,135.087,83.496,136.418,84.42,137.467"/>
	<polygon fill="#F27124" points="83.33,116.506 87.254,116.506 89.902,121.602 87.778,121.602 	"/>
	<polygon fill="#F27124" points="98.68,143.51 98.68,139.44 100.745,139.44 100.745,127.313 98.68,127.313 98.68,123.266 
		105.833,123.266 112.606,134.438 112.453,127.313 110.279,127.313 110.279,123.266 119.573,123.266 119.573,127.313 
		117.542,127.313 117.542,143.51 113.172,143.51 105.718,131.308 105.833,139.44 107.977,139.44 107.977,143.51 	"/>
	<path fill="#F27124" d="M135.686,136.101h-2.539v-3.752h10.235v3.752h-1.821v7.409h-4.419v-2.662
		c-0.816,1.032-1.748,1.797-2.802,2.297c-1.04,0.499-2.248,0.74-3.575,0.74c-1.232,0-2.425-0.225-3.6-0.648
		c-1.166-0.441-2.173-1.075-3.083-1.89c-1.112-1.008-1.99-2.215-2.614-3.596c-0.612-1.366-0.904-2.839-0.904-4.346
		c0-1.633,0.292-3.113,0.904-4.463c0.624-1.313,1.522-2.547,2.709-3.58c0.923-0.781,1.931-1.39,3.083-1.847
		c1.183-0.417,2.384-0.625,3.621-0.625c1.052,0,2.016,0.15,2.868,0.459c0.841,0.309,1.548,0.781,2.151,1.391l-0.033-1.475h4.703
		v7.067h-5.107c-0.346-0.882-0.874-1.516-1.562-1.973c-0.683-0.409-1.535-0.633-2.542-0.633c-1.532,0-2.784,0.524-3.75,1.606
		c-0.994,1.049-1.494,2.406-1.494,4.071c0,1.682,0.467,3.046,1.453,4.069c0.932,1.032,2.226,1.557,3.791,1.557
		c0.975,0,1.824-0.257,2.572-0.748C134.686,137.783,135.282,137.051,135.686,136.101"/>
	<path fill="#F27124" d="M151.955,143.51v-4.069h2.04v-4.536h-2.622v-3.788h2.622v-3.804h-2.04v-4.047h9.605
		c1.371,0,2.597,0.084,3.613,0.25c0.986,0.167,1.802,0.416,2.46,0.749c1.805,0.958,3.125,2.182,3.933,3.662
		c0.866,1.434,1.286,3.28,1.286,5.479c0,2.131-0.42,3.979-1.286,5.443c-0.844,1.499-2.193,2.714-3.933,3.646
		c-0.658,0.366-1.475,0.608-2.46,0.751c-1.016,0.183-2.243,0.265-3.613,0.265H151.955z M159.389,127.313v3.804h3.99v3.788h-3.99
		v4.536h1.564c2.098,0,3.668-0.467,4.736-1.532c1.078-0.991,1.614-2.522,1.614-4.503c0-1.999-0.536-3.513-1.593-4.562
		c-1.07-1.016-2.66-1.531-4.757-1.531H159.389z"/>
	<path fill="#F27124" d="M173.584,143.51v-4.069h1.745l3.736-12.128h-1.994v-4.047h14.256v4.047h-1.985l3.73,12.128h1.765v4.069
		h-8.841v-4.069h1.78l-0.808-2.723h-5.548l-0.74,2.723h1.767v4.069H173.584z M182.256,133.138h3.911l-1.97-6.393L182.256,133.138z"
		/>
	<rect x="182.504" y="145.475" fill="#F27124" width="3.417" height="3.696"/>
	<polygon fill="#F27124" points="195.536,143.51 195.536,139.44 197.596,139.44 197.596,127.313 195.536,127.313 195.536,123.266 
		204.991,123.266 204.991,127.313 202.849,127.313 202.849,139.44 204.991,139.44 204.991,143.51 	"/>
	<polygon fill="#F27124" points="214.119,143.51 214.119,139.44 216.184,139.44 216.184,127.313 214.119,127.313 214.119,123.266 
		223.552,123.266 223.552,127.313 221.437,127.313 221.437,131.024 227.381,131.024 227.381,127.313 225.248,127.313 
		225.248,123.266 234.676,123.266 234.676,127.313 232.657,127.313 232.657,139.44 234.676,139.44 234.676,143.51 225.248,143.51 
		225.248,139.44 227.381,139.44 227.381,135.036 221.437,135.036 221.437,139.44 223.552,139.44 223.552,143.51 	"/>
	<path fill="#F27124" d="M235.208,133.405c0-1.599,0.267-3.063,0.841-4.387c0.58-1.332,1.434-2.507,2.586-3.604
		c0.945-0.833,1.943-1.482,3.07-1.898c1.108-0.417,2.356-0.625,3.684-0.625c1.366,0,2.595,0.208,3.723,0.625
		c1.11,0.416,2.169,1.065,3.107,1.898c1.091,1.064,1.957,2.272,2.56,3.629c0.571,1.348,0.871,2.83,0.871,4.362
		s-0.3,2.979-0.871,4.346c-0.599,1.348-1.456,2.539-2.56,3.562c-0.938,0.883-1.997,1.515-3.107,1.933
		c-1.183,0.415-2.382,0.64-3.723,0.64c-1.302,0-2.559-0.225-3.661-0.64c-1.175-0.418-2.186-1.05-3.093-1.933
		c-1.111-1.022-1.978-2.214-2.556-3.562C235.521,136.418,235.213,134.986,235.208,133.405 M240.454,133.405
		c0,1.622,0.494,2.946,1.439,4.004c0.92,1.057,2.105,1.589,3.533,1.589c1.432,0,2.618-0.532,3.567-1.589
		c0.932-1.024,1.406-2.356,1.406-4.004c0-1.649-0.475-3.015-1.406-4.071c-0.949-1.041-2.136-1.581-3.567-1.581
		c-1.406,0-2.597,0.54-3.533,1.581C240.948,130.426,240.454,131.772,240.454,133.405"/>
	<rect x="243.067" y="145.475" fill="#F27124" width="3.467" height="3.696"/>
	<path fill="#F27124" d="M271.845,136.068h5.647c-0.749,2.438-2.052,4.345-3.925,5.76c-1.882,1.374-4.083,2.057-6.614,2.057
		c-1.415,0-2.714-0.216-3.925-0.64c-1.212-0.418-2.277-1.084-3.267-1.933c-1.182-1.022-2.077-2.214-2.706-3.562
		c-0.607-1.333-0.903-2.806-0.903-4.346c0-1.573,0.296-3.022,0.903-4.362c0.629-1.356,1.524-2.539,2.706-3.629
		c0.989-0.8,2.055-1.441,3.267-1.898c1.211-0.417,2.51-0.625,3.925-0.625c1.117,0,2.136,0.191,3.084,0.576
		c0.937,0.35,1.739,0.898,2.422,1.646v-1.848h4.7v7.808h-5.091c-0.412-1.065-1.062-1.906-1.881-2.496
		c-0.825-0.55-1.869-0.824-3.019-0.824c-1.605,0-2.93,0.507-3.933,1.581c-1.019,1.041-1.519,2.406-1.519,4.071
		c0,1.622,0.5,2.946,1.494,4.004c1.019,1.057,2.255,1.589,3.766,1.589c1.093,0,2.049-0.232,2.827-0.715
		C270.612,137.8,271.295,137.068,271.845,136.068"/>
	<polygon fill="#F27124" points="286.19,143.51 286.19,139.44 288.25,139.44 288.25,127.313 286.19,127.313 286.19,123.266 
		304.008,123.266 304.008,130.557 300.496,130.557 299.285,127.313 293.528,127.313 293.528,130.608 297.266,130.608 
		297.266,135.111 293.528,135.111 293.528,139.44 296.188,139.44 296.188,143.51 	"/>
	<path fill="#F27124" d="M305.144,143.51v-4.069h2.054v-12.128h-2.054v-4.047h10.368c2.103,0,3.784,0.583,5,1.724
		c1.24,1.157,1.843,2.738,1.843,4.686c0,1.974-0.603,3.547-1.843,4.695c-1.216,1.141-2.897,1.698-5,1.698h-3.046v3.372h2.111v4.069
		H305.144z M312.466,127.313v4.968h1.377c1.07,0,1.881-0.207,2.431-0.598c0.529-0.426,0.809-1.041,0.809-1.882
		c0-0.825-0.279-1.473-0.809-1.85c-0.55-0.423-1.36-0.639-2.431-0.639H312.466z"/>
	<polygon fill="#F27124" points="327.233,143.51 327.233,139.44 329.294,139.44 329.294,127.253 327.645,127.253 326.604,130.458 
		323.38,130.458 323.38,123.266 340.432,123.266 340.432,130.458 337.18,130.458 336.147,127.253 334.521,127.253 334.521,139.44 
		336.569,139.44 336.569,143.51 	"/>
</g>
</svg>
